<svg width="30" height="38" viewBox="0 0 30 38" fill="none" xmlns="http://www.w3.org/2000/svg">
<path d="M29.2878 23.3561C29.2878 31.4437 22.7315 38 14.6439 38C6.5563 38 0 31.4437 0 23.3561C0 15.2685 8.61951 6.11707 14.6439 0C19.1854 4.44878 29.2878 15.2685 29.2878 23.3561Z" fill="#4F89D4"/>
<path d="M15.1197 19.718C16.1757 19.718 17.0397 20.07 17.7117 20.774C18.3837 21.478 18.7197 22.3793 18.7197 23.478C18.7197 24.6833 18.3464 25.6593 17.5997 26.406C16.8637 27.142 15.9037 27.51 14.7197 27.51C13.493 27.51 12.5224 27.19 11.8077 26.55C11.093 25.8993 10.7037 25.0567 10.6397 24.022H12.4957C12.5704 24.6193 12.7944 25.0727 13.1677 25.382C13.541 25.6913 14.037 25.846 14.6557 25.846C15.3277 25.846 15.861 25.638 16.2557 25.222C16.6504 24.806 16.8477 24.2407 16.8477 23.526C16.8477 22.822 16.6504 22.262 16.2557 21.846C15.861 21.43 15.3384 21.222 14.6877 21.222C13.8024 21.222 13.1357 21.5367 12.6877 22.166H10.8957L11.3917 16.102H18.0637V17.686H12.8637L12.6557 20.422H13.0397C13.6264 19.9527 14.3197 19.718 15.1197 19.718Z" fill="white"/>
</svg>
