<svg width="30" height="38" viewBox="0 0 30 38" fill="none" xmlns="http://www.w3.org/2000/svg">
<path d="M29.2878 23.3561C29.2878 31.4437 22.7315 38 14.6439 38C6.5563 38 0 31.4437 0 23.3561C0 15.2685 8.61951 6.11707 14.6439 0C19.1854 4.44878 29.2878 15.2685 29.2878 23.3561Z" fill="#4F89D4"/>
<path d="M17.1219 21.19V21.574C17.5699 21.7553 17.9646 22.07 18.3059 22.518C18.6473 22.9553 18.8179 23.5153 18.8179 24.198C18.8179 25.1473 18.4393 25.9367 17.6819 26.566C16.9353 27.1953 15.9219 27.51 14.6419 27.51C13.3513 27.51 12.3273 27.1953 11.5699 26.566C10.8233 25.9367 10.4499 25.1473 10.4499 24.198C10.4499 23.5153 10.6206 22.9553 10.9619 22.518C11.3033 22.07 11.6979 21.7553 12.1459 21.574V21.19C11.7939 21.0193 11.4793 20.7367 11.2019 20.342C10.9353 19.9473 10.8019 19.462 10.8019 18.886C10.8019 18.0007 11.1539 17.2807 11.8579 16.726C12.5619 16.1607 13.4899 15.878 14.6419 15.878C15.7939 15.878 16.7166 16.1607 17.4099 16.726C18.1139 17.2807 18.4659 18.0007 18.4659 18.886C18.4659 19.462 18.3273 19.942 18.0499 20.326C17.7833 20.71 17.4739 20.998 17.1219 21.19ZM16.0819 17.83C15.7086 17.5313 15.2286 17.382 14.6419 17.382C14.0553 17.382 13.5699 17.5313 13.1859 17.83C12.8019 18.1287 12.6099 18.5287 12.6099 19.03C12.6099 19.5313 12.8019 19.9367 13.1859 20.246C13.5699 20.5447 14.0553 20.694 14.6419 20.694C15.2286 20.694 15.7086 20.5447 16.0819 20.246C16.4659 19.9367 16.6579 19.5313 16.6579 19.03C16.6579 18.5287 16.4659 18.1287 16.0819 17.83ZM14.6419 25.91C15.3673 25.91 15.9379 25.7393 16.3539 25.398C16.7699 25.046 16.9779 24.5873 16.9779 24.022C16.9779 23.4567 16.7699 23.0033 16.3539 22.662C15.9379 22.31 15.3673 22.134 14.6419 22.134C13.8953 22.134 13.3193 22.31 12.9139 22.662C12.5086 23.0033 12.3059 23.4567 12.3059 24.022C12.3059 24.5873 12.5086 25.046 12.9139 25.398C13.3193 25.7393 13.8953 25.91 14.6419 25.91Z" fill="white"/>
</svg>
