<svg width="30" height="38" viewBox="0 0 30 38" fill="none" xmlns="http://www.w3.org/2000/svg">
<path d="M29.2878 23.3561C29.2878 31.4437 22.7315 38 14.6439 38C6.5563 38 0 31.4437 0 23.3561C0 15.2685 8.61951 6.11707 14.6439 0C19.1854 4.44878 29.2878 15.2685 29.2878 23.3561Z" fill="#4F89D4"/>
<path d="M15.2633 19.926C16.2873 19.926 17.1406 20.2727 17.8233 20.966C18.5166 21.6487 18.8633 22.5287 18.8633 23.606C18.8633 24.7047 18.5006 25.6327 17.7753 26.39C17.0606 27.1367 16.1006 27.51 14.8953 27.51C13.5726 27.51 12.5273 27.0673 11.7593 26.182C10.9913 25.2967 10.6073 23.8887 10.6073 21.958C10.6073 20.774 10.7566 19.7393 11.0553 18.854C11.3646 17.958 11.8553 17.238 12.5273 16.694C13.1993 16.15 14.026 15.878 15.0073 15.878C15.9673 15.878 16.7673 16.1447 17.4073 16.678C18.0473 17.2007 18.4313 17.8727 18.5593 18.694H16.7193C16.4633 17.8727 15.882 17.462 14.9753 17.462C14.2073 17.462 13.5993 17.7553 13.1513 18.342C12.7033 18.9287 12.4526 19.782 12.3993 20.902H12.7833C13.3806 20.2513 14.2073 19.926 15.2633 19.926ZM13.3113 25.318C13.7166 25.7127 14.234 25.91 14.8633 25.91C15.4926 25.91 16.0046 25.718 16.3993 25.334C16.794 24.9393 16.9913 24.3847 16.9913 23.67C16.9913 22.9553 16.794 22.4113 16.3993 22.038C16.0046 21.6647 15.4873 21.478 14.8473 21.478C14.218 21.478 13.7006 21.67 13.2953 22.054C12.9006 22.4273 12.7033 22.9607 12.7033 23.654C12.7033 24.358 12.906 24.9127 13.3113 25.318Z" fill="white"/>
</svg>
