<svg width="30" height="38" viewBox="0 0 30 38" fill="none" xmlns="http://www.w3.org/2000/svg">
<path d="M29.2878 23.3561C29.2878 31.4437 22.7315 38 14.6439 38C6.5563 38 0 31.4437 0 23.3561C0 15.2685 8.61951 6.11707 14.6439 0C19.1854 4.44878 29.2878 15.2685 29.2878 23.3561Z" fill="#4F89D4"/>
<path d="M12.5567 19.334H10.7007C10.7647 18.214 11.1487 17.3607 11.8527 16.774C12.5567 16.1767 13.4794 15.878 14.6207 15.878C15.7407 15.878 16.6474 16.1873 17.3407 16.806C18.034 17.414 18.3807 18.2727 18.3807 19.382C18.3807 20.7047 17.6234 21.974 16.1087 23.19L13.5167 25.286V25.67H18.7007V27.302H10.7167V25.302L14.7327 22.134C15.9167 21.1953 16.5087 20.2833 16.5087 19.398C16.5087 18.8007 16.3327 18.342 15.9807 18.022C15.6394 17.702 15.17 17.542 14.5727 17.542C14.0074 17.542 13.5434 17.6913 13.1807 17.99C12.8287 18.2887 12.6207 18.7367 12.5567 19.334Z" fill="white"/>
</svg>
