<svg width="30" height="38" viewBox="0 0 30 38" fill="none" xmlns="http://www.w3.org/2000/svg">
<path d="M29.2878 23.3561C29.2878 31.4437 22.7315 38 14.6439 38C6.5563 38 0 31.4437 0 23.3561C0 15.2685 8.61951 6.11707 14.6439 0C19.1854 4.44878 29.2878 15.2685 29.2878 23.3561Z" fill="#4F89D4"/>
<path d="M11.1632 16.102H18.0432V18.07L15.6112 20.038V20.438C16.4859 20.4807 17.2005 20.7953 17.7552 21.382C18.3205 21.958 18.6032 22.7473 18.6032 23.75C18.6032 24.9127 18.2192 25.83 17.4512 26.502C16.6939 27.174 15.7072 27.51 14.4912 27.51C13.3072 27.51 12.3365 27.1793 11.5792 26.518C10.8325 25.8567 10.4379 25.0247 10.3952 24.022H12.2672C12.3205 24.5873 12.5499 25.0353 12.9552 25.366C13.3712 25.686 13.8832 25.846 14.4912 25.846C15.1845 25.846 15.7339 25.6593 16.1392 25.286C16.5445 24.9127 16.7472 24.4007 16.7472 23.75C16.7472 23.0993 16.5499 22.5873 16.1552 22.214C15.7712 21.83 15.2219 21.638 14.5072 21.638C14.1125 21.638 13.7765 21.67 13.4992 21.734V20.038L15.9152 18.07V17.686H11.1632V16.102Z" fill="white"/>
</svg>
