<svg width="30" height="38" viewBox="0 0 30 38" fill="none" xmlns="http://www.w3.org/2000/svg">
<path d="M29.2878 23.3561C29.2878 31.4437 22.7315 38 14.6439 38C6.5563 38 0 31.4437 0 23.3561C0 15.2685 8.61951 6.11707 14.6439 0C19.1854 4.44878 29.2878 15.2685 29.2878 23.3561Z" fill="#4F89D4"/>
<path d="M14.0153 23.462C12.9913 23.462 12.1326 23.1207 11.4393 22.438C10.7566 21.7447 10.4153 20.8593 10.4153 19.782C10.4153 18.6833 10.7726 17.7607 11.4873 17.014C12.2126 16.2567 13.178 15.878 14.3833 15.878C15.706 15.878 16.7513 16.3207 17.5193 17.206C18.2873 18.0913 18.6713 19.4993 18.6713 21.43C18.6713 22.614 18.5166 23.654 18.2073 24.55C17.9086 25.4353 17.4233 26.15 16.7513 26.694C16.0793 27.238 15.2526 27.51 14.2713 27.51C13.3113 27.51 12.5113 27.2487 11.8713 26.726C11.2313 26.1927 10.8473 25.5153 10.7193 24.694H12.5593C12.8153 25.5153 13.3966 25.926 14.3033 25.926C15.0713 25.926 15.6793 25.6327 16.1273 25.046C16.5753 24.4593 16.826 23.606 16.8793 22.486H16.4953C15.898 23.1367 15.0713 23.462 14.0153 23.462ZM15.9673 18.086C15.562 17.6807 15.0446 17.478 14.4153 17.478C13.786 17.478 13.274 17.6753 12.8793 18.07C12.4846 18.454 12.2873 19.0033 12.2873 19.718C12.2873 20.4327 12.4846 20.9767 12.8793 21.35C13.274 21.7233 13.7913 21.91 14.4313 21.91C15.0606 21.91 15.5726 21.7233 15.9673 21.35C16.3726 20.966 16.5753 20.4273 16.5753 19.734C16.5753 19.03 16.3726 18.4807 15.9673 18.086Z" fill="white"/>
</svg>
