<svg width="40" height="28" viewBox="0 0 40 28" fill="none" xmlns="http://www.w3.org/2000/svg">
<path d="M38.75 21.5H35.625V2.75C35.6243 2.08719 35.3606 1.45174 34.8919 0.983055C34.4233 0.514376 33.7878 0.250744 33.125 0.25H6.875C6.21219 0.250744 5.57674 0.514376 5.10806 0.983055C4.63938 1.45174 4.37574 2.08719 4.375 2.75V21.5H1.25C1.08424 21.5 0.925268 21.5658 0.808058 21.6831C0.690848 21.8003 0.625 21.9592 0.625 22.125V25.25C0.625744 25.9128 0.889376 26.5483 1.35806 27.0169C1.82673 27.4856 2.46219 27.7493 3.125 27.75H36.875C37.5378 27.7493 38.1733 27.4856 38.6419 27.0169C39.1106 26.5483 39.3743 25.9128 39.375 25.25V22.125C39.375 21.9592 39.3092 21.8003 39.1919 21.6831C39.0747 21.5658 38.9158 21.5 38.75 21.5ZM5.625 2.75C5.62543 2.41861 5.75727 2.10092 5.9916 1.8666C6.22592 1.63227 6.54361 1.50043 6.875 1.5H33.125C33.4564 1.50043 33.7741 1.63227 34.0084 1.8666C34.2427 2.10092 34.3746 2.41861 34.375 2.75V21.5H5.625V2.75ZM22.8484 22.75L22.6141 23.375H17.3258L17.1172 22.75H22.8484ZM38.125 25.25C38.1246 25.5814 37.9927 25.8991 37.7584 26.1334C37.5241 26.3677 37.2064 26.4996 36.875 26.5H3.125C2.79361 26.4996 2.47592 26.3677 2.2416 26.1334C2.00727 25.8991 1.87543 25.5814 1.875 25.25V22.75H15.7992L16.282 24.1977C16.3235 24.3221 16.4031 24.4303 16.5095 24.507C16.616 24.5837 16.7438 24.625 16.875 24.625H23.0469C23.1741 24.6249 23.2982 24.5861 23.4028 24.5137C23.5073 24.4412 23.5873 24.3386 23.632 24.2195L24.1828 22.75H38.125V25.25Z" fill="#4F89D4"/>
<path d="M8.75 24H3.75C3.58424 24 3.42527 24.0658 3.30806 24.1831C3.19085 24.3003 3.125 24.4592 3.125 24.625C3.125 24.7908 3.19085 24.9497 3.30806 25.0669C3.42527 25.1842 3.58424 25.25 3.75 25.25H8.75C8.91576 25.25 9.07473 25.1842 9.19194 25.0669C9.30915 24.9497 9.375 24.7908 9.375 24.625C9.375 24.4592 9.30915 24.3003 9.19194 24.1831C9.07473 24.0658 8.91576 24 8.75 24Z" fill="#4F89D4"/>
<path d="M15.625 9C15.9517 9.00023 16.2753 8.93606 16.5771 8.81118L21.1736 14.9399C20.8803 15.3062 20.696 15.7476 20.6418 16.2137C20.5875 16.6798 20.6656 17.1517 20.8669 17.5756C21.0683 17.9994 21.3849 18.358 21.7805 18.6103C22.1761 18.8627 22.6347 18.9986 23.1039 19.0026C23.5731 19.0065 24.034 18.8784 24.4338 18.6327C24.8336 18.3871 25.1562 18.0338 25.3647 17.6135C25.5732 17.1931 25.6591 16.7225 25.6128 16.2556C25.5664 15.7887 25.3896 15.3442 25.1025 14.9731L28.3837 10.7478C28.839 10.9445 29.3425 11.0013 29.8302 10.9111C30.3179 10.8208 30.7677 10.5875 31.1225 10.2408C31.4772 9.89417 31.7208 9.44985 31.8223 8.96436C31.9237 8.47888 31.8785 7.97418 31.6924 7.51447C31.5062 7.05475 31.1875 6.6608 30.7768 6.38272C30.3661 6.10464 29.882 5.955 29.3861 5.95284C28.8901 5.95068 28.4047 6.09609 27.9916 6.37058C27.5785 6.64507 27.2564 7.03623 27.0662 7.4943L18.1094 6.22125C18.0556 5.7417 17.8642 5.28796 17.5582 4.9148C17.2522 4.54165 16.8447 4.26503 16.385 4.11833C15.9253 3.97162 15.4329 3.96111 14.9674 4.08805C14.5018 4.21499 14.0829 4.47396 13.7613 4.83371C13.4396 5.19346 13.229 5.63861 13.1548 6.11543C13.0805 6.59226 13.1459 7.08037 13.3429 7.52087C13.54 7.96137 13.8603 8.33543 14.2653 8.59789C14.6702 8.86036 15.1425 9.00001 15.625 9ZM27.3976 9.98008L24.1164 14.2053C23.8101 14.0727 23.4802 14.0029 23.1465 14.0001C22.8127 13.9973 22.4818 14.0614 22.1732 14.1888L17.5768 8.06008C17.7234 7.87726 17.8436 7.67476 17.9339 7.45852L26.8913 8.73196C26.942 9.18666 27.1172 9.61854 27.3976 9.98008ZM23.125 17.75C22.8778 17.75 22.6361 17.6767 22.4306 17.5394C22.225 17.402 22.0648 17.2068 21.9702 16.9784C21.8756 16.75 21.8508 16.4986 21.8991 16.2561C21.9473 16.0137 22.0663 15.7909 22.2412 15.6161C22.416 15.4413 22.6387 15.3223 22.8812 15.274C23.1236 15.2258 23.375 15.2506 23.6034 15.3452C23.8318 15.4398 24.027 15.6 24.1644 15.8055C24.3017 16.0111 24.375 16.2528 24.375 16.5C24.3746 16.8314 24.2428 17.1491 24.0085 17.3835C23.7742 17.6178 23.4564 17.7496 23.125 17.75ZM29.375 7.20313C29.6223 7.20313 29.8639 7.27644 30.0695 7.41379C30.2751 7.55114 30.4353 7.74637 30.5299 7.97477C30.6245 8.20318 30.6493 8.45452 30.601 8.69699C30.5528 8.93947 30.4337 9.1622 30.2589 9.33701C30.0841 9.51183 29.8614 9.63088 29.6189 9.67911C29.3764 9.72734 29.1251 9.70259 28.8967 9.60798C28.6683 9.51337 28.4731 9.35315 28.3357 9.14759C28.1983 8.94203 28.125 8.70036 28.125 8.45313C28.1254 8.12173 28.2573 7.80401 28.4916 7.56968C28.7259 7.33534 29.0436 7.20352 29.375 7.20313ZM15.625 5.25C15.8723 5.25 16.1139 5.32331 16.3195 5.46066C16.5251 5.59802 16.6853 5.79324 16.7799 6.02165C16.8745 6.25006 16.8993 6.50139 16.851 6.74387C16.8028 6.98634 16.6837 7.20907 16.5089 7.38389C16.3341 7.5587 16.1114 7.67775 15.8689 7.72599C15.6264 7.77422 15.3751 7.74946 15.1467 7.65485C14.9183 7.56024 14.7231 7.40003 14.5857 7.19447C14.4483 6.9889 14.375 6.74723 14.375 6.5C14.3754 6.1686 14.5073 5.85089 14.7416 5.61655C14.9759 5.38222 15.2936 5.25039 15.625 5.25Z" fill="#4F89D4"/>
<path d="M9.375 12.75H16.25C16.4158 12.75 16.5747 12.6842 16.6919 12.5669C16.8092 12.4497 16.875 12.2908 16.875 12.125C16.875 11.9592 16.8092 11.8003 16.6919 11.6831C16.5747 11.5658 16.4158 11.5 16.25 11.5H9.375C9.20924 11.5 9.05027 11.5658 8.93306 11.6831C8.81585 11.8003 8.75 11.9592 8.75 12.125C8.75 12.2908 8.81585 12.4497 8.93306 12.5669C9.05027 12.6842 9.20924 12.75 9.375 12.75Z" fill="#4F89D4"/>
<path d="M9.375 14.625H16.25C16.4158 14.625 16.5747 14.5592 16.6919 14.4419C16.8092 14.3247 16.875 14.1658 16.875 14C16.875 13.8342 16.8092 13.6753 16.6919 13.5581C16.5747 13.4408 16.4158 13.375 16.25 13.375H9.375C9.20924 13.375 9.05027 13.4408 8.93306 13.5581C8.81585 13.6753 8.75 13.8342 8.75 14C8.75 14.1658 8.81585 14.3247 8.93306 14.4419C9.05027 14.5592 9.20924 14.625 9.375 14.625Z" fill="#4F89D4"/>
<path d="M9.375 16.5H12.5C12.6658 16.5 12.8247 16.4342 12.9419 16.3169C13.0592 16.1997 13.125 16.0408 13.125 15.875C13.125 15.7092 13.0592 15.5503 12.9419 15.4331C12.8247 15.3158 12.6658 15.25 12.5 15.25H9.375C9.20924 15.25 9.05027 15.3158 8.93306 15.4331C8.81585 15.5503 8.75 15.7092 8.75 15.875C8.75 16.0408 8.81585 16.1997 8.93306 16.3169C9.05027 16.4342 9.20924 16.5 9.375 16.5Z" fill="#4F89D4"/>
</svg>
