<svg width="40" height="36" viewBox="0 0 40 36" fill="none" xmlns="http://www.w3.org/2000/svg">
<path d="M37.325 18.1912L32.95 13.655L31.875 12.5356V6.12496H32.5C32.6658 6.12496 32.8247 6.05911 32.9419 5.9419C33.0592 5.82469 33.125 5.66572 33.125 5.49996V3.62496C33.125 3.45919 33.0592 3.30022 32.9419 3.18301C32.8247 3.0658 32.6658 2.99995 32.5 2.99996H27.5C27.3342 2.99995 27.1753 3.0658 27.0581 3.18301C26.9408 3.30022 26.875 3.45919 26.875 3.62496V5.49996C26.875 5.66572 26.9408 5.82469 27.0581 5.9419C27.1753 6.05911 27.3342 6.12496 27.5 6.12496H28.125V8.65121L20.45 0.691205C20.3917 0.630716 20.3218 0.582603 20.2445 0.54974C20.1672 0.516877 20.084 0.499939 20 0.499939C19.916 0.499939 19.8328 0.516877 19.7555 0.54974C19.6782 0.582603 19.6083 0.630716 19.55 0.691205L2.675 18.1912C2.55996 18.3106 2.49705 18.4707 2.50009 18.6364C2.50314 18.8022 2.5719 18.9599 2.69125 19.075C2.8106 19.19 2.97076 19.2529 3.13649 19.2499C3.30223 19.2468 3.45996 19.1781 3.575 19.0587L6.875 15.6362V34.25H1.25C1.08424 34.25 0.925268 34.3158 0.808058 34.433C0.690848 34.5502 0.625 34.7092 0.625 34.875C0.625 35.0407 0.690848 35.1997 0.808058 35.3169C0.925268 35.4341 1.08424 35.5 1.25 35.5H36.25C36.4158 35.5 36.5747 35.4341 36.6919 35.3169C36.8092 35.1997 36.875 35.0407 36.875 34.875C36.875 34.7092 36.8092 34.5502 36.6919 34.433C36.5747 34.3158 36.4158 34.25 36.25 34.25H33.125V15.6362L36.425 19.0587C36.54 19.1781 36.6978 19.2468 36.8635 19.2499C37.0292 19.2529 37.1894 19.19 37.3087 19.075C37.4281 18.9599 37.4969 18.8022 37.4999 18.6364C37.5029 18.4707 37.44 18.3106 37.325 18.1912ZM28.125 4.24996H31.875V4.87496H28.125V4.24996ZM8.125 34.25V14.3387L20 2.02496L28.3 10.6337C28.3865 10.7234 28.4978 10.7852 28.6196 10.8112C28.7415 10.8372 28.8683 10.8262 28.9839 10.7796C29.0994 10.733 29.1984 10.6529 29.2681 10.5496C29.3378 10.4463 29.375 10.3245 29.375 10.2V6.12496H30.625V12.7875C30.6253 12.9491 30.6877 13.1044 30.7994 13.2212L31.875 14.3387V34.25H8.125Z" fill="#4F89D4"/>
<path d="M38.75 34.2499H38.125C37.9592 34.2499 37.8003 34.3158 37.6831 34.433C37.5658 34.5502 37.5 34.7092 37.5 34.8749C37.5 35.0407 37.5658 35.1997 37.6831 35.3169C37.8003 35.4341 37.9592 35.4999 38.125 35.4999H38.75C38.9158 35.4999 39.0747 35.4341 39.1919 35.3169C39.3092 35.1997 39.375 35.0407 39.375 34.8749C39.375 34.7092 39.3092 34.5502 39.1919 34.433C39.0747 34.3158 38.9158 34.2499 38.75 34.2499Z" fill="#4F89D4"/>
<path d="M18.125 19.25H19.375V21.75C19.375 21.9158 19.4408 22.0747 19.5581 22.1919C19.6753 22.3092 19.8342 22.375 20 22.375C20.1658 22.375 20.3247 22.3092 20.4419 22.1919C20.5592 22.0747 20.625 21.9158 20.625 21.75V19.25H21.875C22.0408 19.25 22.1997 19.1842 22.3169 19.0669C22.4342 18.9497 22.5 18.7908 22.5 18.625V16.75C22.5 16.5842 22.4342 16.4253 22.3169 16.3081C22.1997 16.1908 22.0408 16.125 21.875 16.125H20.625V13C20.625 12.8342 20.5592 12.6753 20.4419 12.5581C20.3247 12.4408 20.1658 12.375 20 12.375C19.8342 12.375 19.6753 12.4408 19.5581 12.5581C19.4408 12.6753 19.375 12.8342 19.375 13V16.125H18.125C17.9592 16.125 17.8003 16.1908 17.6831 16.3081C17.5658 16.4253 17.5 16.5842 17.5 16.75V18.625C17.5 18.7908 17.5658 18.9497 17.6831 19.0669C17.8003 19.1842 17.9592 19.25 18.125 19.25ZM18.75 17.375H21.25V18H18.75V17.375Z" fill="#4F89D4"/>
<path d="M11.875 17.375H13.125V21.75C13.125 21.9158 13.1908 22.0747 13.3081 22.1919C13.4253 22.3092 13.5842 22.375 13.75 22.375C13.9158 22.375 14.0747 22.3092 14.1919 22.1919C14.3092 22.0747 14.375 21.9158 14.375 21.75V17.375H15.625C15.7908 17.375 15.9497 17.3092 16.0669 17.1919C16.1842 17.0747 16.25 16.9158 16.25 16.75V14.875C16.25 14.7092 16.1842 14.5503 16.0669 14.4331C15.9497 14.3158 15.7908 14.25 15.625 14.25H14.375V13C14.375 12.8342 14.3092 12.6753 14.1919 12.5581C14.0747 12.4408 13.9158 12.375 13.75 12.375C13.5842 12.375 13.4253 12.4408 13.3081 12.5581C13.1908 12.6753 13.125 12.8342 13.125 13V14.25H11.875C11.7092 14.25 11.5503 14.3158 11.4331 14.4331C11.3158 14.5503 11.25 14.7092 11.25 14.875V16.75C11.25 16.9158 11.3158 17.0747 11.4331 17.1919C11.5503 17.3092 11.7092 17.375 11.875 17.375ZM12.5 15.5H15V16.125H12.5V15.5Z" fill="#4F89D4"/>
<path d="M28.125 17.375H26.875V13C26.875 12.8342 26.8092 12.6753 26.6919 12.5581C26.5747 12.4408 26.4158 12.375 26.25 12.375C26.0842 12.375 25.9253 12.4408 25.8081 12.5581C25.6908 12.6753 25.625 12.8342 25.625 13V17.375H24.375C24.2092 17.375 24.0503 17.4408 23.9331 17.5581C23.8158 17.6753 23.75 17.8342 23.75 18V19.875C23.75 20.0408 23.8158 20.1997 23.9331 20.3169C24.0503 20.4342 24.2092 20.5 24.375 20.5H25.625V21.75C25.625 21.9158 25.6908 22.0747 25.8081 22.1919C25.9253 22.3092 26.0842 22.375 26.25 22.375C26.4158 22.375 26.5747 22.3092 26.6919 22.1919C26.8092 22.0747 26.875 21.9158 26.875 21.75V20.5H28.125C28.2908 20.5 28.4497 20.4342 28.5669 20.3169C28.6842 20.1997 28.75 20.0408 28.75 19.875V18C28.75 17.8342 28.6842 17.6753 28.5669 17.5581C28.4497 17.4408 28.2908 17.375 28.125 17.375ZM27.5 19.25H25V18.625H27.5V19.25Z" fill="#4F89D4"/>
<path d="M28.125 22.9999H11.875C11.7092 22.9999 11.5503 23.0658 11.4331 23.183C11.3158 23.3002 11.25 23.4592 11.25 23.6249V25.4999C11.25 25.6657 11.3158 25.8247 11.4331 25.9419C11.5503 26.0591 11.7092 26.1249 11.875 26.1249H28.125C28.2908 26.1249 28.4497 26.0591 28.5669 25.9419C28.6842 25.8247 28.75 25.6657 28.75 25.4999V23.6249C28.75 23.4592 28.6842 23.3002 28.5669 23.183C28.4497 23.0658 28.2908 22.9999 28.125 22.9999ZM27.5 24.8749H12.5V24.2499H27.5V24.8749Z" fill="#4F89D4"/>
<path d="M26.25 26.7499C25.7556 26.7499 25.2722 26.8966 24.8611 27.1713C24.45 27.446 24.1295 27.8364 23.9403 28.2932C23.7511 28.75 23.7016 29.2527 23.798 29.7377C23.8945 30.2226 24.1326 30.6681 24.4822 31.0177C24.8319 31.3673 25.2773 31.6054 25.7623 31.7019C26.2472 31.7983 26.7499 31.7488 27.2067 31.5596C27.6635 31.3704 28.054 31.05 28.3287 30.6389C28.6034 30.2277 28.75 29.7444 28.75 29.2499C28.75 28.5869 28.4866 27.951 28.0178 27.4822C27.5489 27.0133 26.9131 26.7499 26.25 26.7499ZM26.25 30.4999C25.9185 30.4999 25.6005 30.3682 25.3661 30.1338C25.1317 29.8994 25 29.5815 25 29.2499C25 28.9184 25.1317 28.6005 25.3661 28.366C25.6005 28.1316 25.9185 27.9999 26.25 27.9999C26.3581 28.0014 26.4655 28.0172 26.5694 28.0468L26.4331 28.1831C26.3734 28.2407 26.3258 28.3097 26.2931 28.3859C26.2603 28.4622 26.2431 28.5442 26.2424 28.6272C26.2416 28.7102 26.2574 28.7925 26.2889 28.8693C26.3203 28.9461 26.3667 29.0159 26.4254 29.0746C26.4841 29.1332 26.5539 29.1796 26.6307 29.2111C26.7075 29.2425 26.7898 29.2583 26.8728 29.2576C26.9557 29.2569 27.0378 29.2396 27.114 29.2069C27.1903 29.1741 27.2592 29.1265 27.3169 29.0668L27.4531 28.9306C27.4828 29.0345 27.4985 29.1419 27.5 29.2499C27.5 29.5815 27.3683 29.8994 27.1339 30.1338C26.8995 30.3682 26.5815 30.4999 26.25 30.4999Z" fill="#4F89D4"/>
<path d="M20.0001 26.7499C19.4217 26.7498 18.8611 26.9503 18.4139 27.3171C17.9668 27.6839 17.6606 28.1945 17.5476 28.7617C17.4347 29.329 17.5219 29.9179 17.7945 30.428C18.067 30.9382 18.5081 31.338 19.0424 31.5595C19.5767 31.7809 20.1713 31.8102 20.7248 31.6424C21.2783 31.4746 21.7565 31.1201 22.078 30.6392C22.3994 30.1583 22.5441 29.5809 22.4875 29.0053C22.4309 28.4297 22.1765 27.8915 21.7676 27.4824C21.536 27.2496 21.2605 27.065 20.9571 26.9392C20.6538 26.8135 20.3285 26.7492 20.0001 26.7499ZM20.8838 30.1337C20.6458 30.3611 20.3292 30.488 20.0001 30.488C19.6709 30.488 19.3543 30.3611 19.1163 30.1337C19.0408 30.0563 18.9758 29.9693 18.9232 29.8749H19.1163C19.2821 29.8749 19.441 29.8091 19.5582 29.6919C19.6755 29.5747 19.7413 29.4157 19.7413 29.2499C19.7413 29.0842 19.6755 28.9252 19.5582 28.808C19.441 28.6908 19.2821 28.6249 19.1163 28.6249H18.9232C18.9758 28.5305 19.0408 28.4435 19.1163 28.3662C19.2316 28.2468 19.3695 28.1516 19.522 28.0861C19.6746 28.0206 19.8386 27.9861 20.0046 27.9846C20.1705 27.9832 20.3351 28.0148 20.4887 28.0777C20.6424 28.1405 20.7819 28.2333 20.8993 28.3507C21.0167 28.4681 21.1095 28.6076 21.1723 28.7612C21.2352 28.9149 21.2668 29.0795 21.2654 29.2454C21.2639 29.4114 21.2294 29.5754 21.1639 29.7279C21.0984 29.8804 21.0032 30.0184 20.8838 30.1337Z" fill="#4F89D4"/>
<path d="M13.75 26.7499C13.2555 26.7499 12.7722 26.8966 12.3611 27.1713C11.95 27.446 11.6295 27.8364 11.4403 28.2932C11.2511 28.75 11.2016 29.2527 11.298 29.7377C11.3945 30.2226 11.6326 30.6681 11.9822 31.0177C12.3319 31.3673 12.7773 31.6054 13.2623 31.7019C13.7472 31.7983 14.2499 31.7488 14.7067 31.5596C15.1635 31.3704 15.554 31.05 15.8287 30.6389C16.1034 30.2277 16.25 29.7444 16.25 29.2499C16.25 28.5869 15.9866 27.951 15.5178 27.4822C15.0489 27.0133 14.413 26.7499 13.75 26.7499ZM13.75 30.4999C13.6419 30.4985 13.5346 30.4827 13.4306 30.4531L13.5669 30.3168C13.6807 30.1989 13.7437 30.041 13.7423 29.8772C13.7409 29.7133 13.6751 29.5565 13.5593 29.4407C13.4434 29.3248 13.2866 29.2591 13.1228 29.2576C12.9589 29.2562 12.801 29.3192 12.6831 29.4331L12.5469 29.5693C12.5172 29.4654 12.5015 29.358 12.5 29.2499C12.5 29.0027 12.5733 28.761 12.7107 28.5555C12.848 28.3499 13.0432 28.1897 13.2716 28.0951C13.5001 28.0005 13.7514 27.9757 13.9939 28.024C14.2363 28.0722 14.4591 28.1912 14.6339 28.366C14.8087 28.5409 14.9278 28.7636 14.976 29.0061C15.0242 29.2485 14.9995 29.4999 14.9049 29.7283C14.8102 29.9567 14.65 30.1519 14.4445 30.2893C14.2389 30.4266 13.9972 30.4999 13.75 30.4999Z" fill="#4F89D4"/>
</svg>
