<svg width="40" height="28" viewBox="0 0 40 28" fill="none" xmlns="http://www.w3.org/2000/svg">
<path d="M37.5 0.875H2.5C2.00272 0.875 1.52581 1.07254 1.17417 1.42417C0.822544 1.77581 0.625 2.25272 0.625 2.75V25.25C0.625 25.7473 0.822544 26.2242 1.17417 26.5758C1.52581 26.9275 2.00272 27.125 2.5 27.125H37.5C37.9973 27.125 38.4742 26.9275 38.8258 26.5758C39.1775 26.2242 39.375 25.7473 39.375 25.25V2.75C39.375 2.25272 39.1775 1.77581 38.8258 1.42417C38.4742 1.07254 37.9973 0.875 37.5 0.875ZM1.875 2.75C1.875 2.58424 1.94085 2.42527 2.05806 2.30806C2.17527 2.19085 2.33424 2.125 2.5 2.125H37.5C37.6658 2.125 37.8247 2.19085 37.9419 2.30806C38.0592 2.42527 38.125 2.58424 38.125 2.75V5.25H1.875V2.75ZM38.125 25.25C38.125 25.4158 38.0592 25.5747 37.9419 25.6919C37.8247 25.8092 37.6658 25.875 37.5 25.875H2.5C2.33424 25.875 2.17527 25.8092 2.05806 25.6919C1.94085 25.5747 1.875 25.4158 1.875 25.25V6.5H38.125V25.25Z" fill="#4F89D4"/>
<path d="M4.37511 15.875C4.54086 15.875 4.6998 15.8091 4.81699 15.6919L5.00011 15.5087V21.5C5.00011 21.6658 5.06596 21.8247 5.18317 21.9419C5.30038 22.0591 5.45935 22.125 5.62511 22.125H14.3751C14.5409 22.125 14.6998 22.0591 14.8171 21.9419C14.9343 21.8247 15.0001 21.6658 15.0001 21.5V15.5087L15.1832 15.6919C15.3011 15.8057 15.459 15.8687 15.6229 15.8673C15.7867 15.8659 15.9435 15.8001 16.0594 15.6843C16.1753 15.5684 16.241 15.4116 16.2424 15.2477C16.2438 15.0839 16.1808 14.926 16.067 14.8081L14.817 13.5581C14.8107 13.5519 14.802 13.55 14.7957 13.5437C14.7895 13.5375 14.7876 13.5306 14.7814 13.5256L10.4064 9.77562C10.2932 9.67879 10.1491 9.62558 10.0001 9.62558C9.85114 9.62558 9.70707 9.67879 9.59386 9.77562L5.21886 13.5256C5.21261 13.5306 5.21074 13.5387 5.20449 13.5437C5.19824 13.5487 5.18949 13.5519 5.18324 13.5581L3.93324 14.8081C3.84586 14.8955 3.78635 15.0069 3.76225 15.1281C3.73814 15.2493 3.75052 15.375 3.79781 15.4892C3.84511 15.6033 3.92519 15.7009 4.02795 15.7696C4.13071 15.8383 4.25152 15.875 4.37511 15.875ZM10.0001 11.0731L13.7501 14.2875V20.875H6.25011V14.2875L10.0001 11.0731Z" fill="#4F89D4"/>
<path d="M19.3749 13.375C19.8722 13.375 20.3491 13.1775 20.7007 12.8258C21.0524 12.4742 21.2499 11.9973 21.2499 11.5C21.2479 11.1975 21.1717 10.9001 21.028 10.6338L22.7099 8.95127H26.5412C26.3511 9.35795 26.2517 9.80111 26.2499 10.25C26.2454 10.9566 26.4789 11.6441 26.9128 12.2018C27.3467 12.7594 27.9557 13.1548 28.6417 13.3241C29.3277 13.4934 30.0508 13.4268 30.6943 13.1351C31.3379 12.8433 31.8644 12.3434 32.1892 11.7158C32.5139 11.0883 32.6179 10.3697 32.4844 9.67584C32.351 8.98197 31.9877 8.35326 31.4533 7.89101C30.9189 7.42876 30.2445 7.15989 29.5386 7.12774C28.8328 7.09559 28.1366 7.30202 27.5624 7.71377C27.5405 7.71377 27.5218 7.70127 27.4999 7.70127H22.4512C22.2854 7.70131 22.1265 7.76718 22.0093 7.8844L20.1149 9.77877C19.8592 9.66829 19.582 9.61619 19.3036 9.62625C19.0252 9.63631 18.7525 9.70829 18.5054 9.83694C18.2583 9.9656 18.043 10.1477 17.8751 10.37C17.7072 10.5923 17.591 10.8493 17.5348 11.1221C17.4787 11.395 17.484 11.677 17.5505 11.9475C17.617 12.218 17.7429 12.4704 17.9192 12.6861C18.0954 12.9019 18.3175 13.0757 18.5693 13.1948C18.8211 13.314 19.0963 13.3756 19.3749 13.375ZM31.2499 10.25C31.2499 10.6209 31.1399 10.9834 30.9339 11.2917C30.7279 11.6001 30.435 11.8404 30.0924 11.9823C29.7498 12.1242 29.3728 12.1613 29.0091 12.089C28.6454 12.0166 28.3113 11.8381 28.0491 11.5758C27.7869 11.3136 27.6083 10.9795 27.5359 10.6158C27.4636 10.2521 27.5007 9.8751 27.6426 9.53249C27.7845 9.18988 28.0249 8.89705 28.3332 8.69102C28.6416 8.48499 29.0041 8.37502 29.3749 8.37502C29.8722 8.37502 30.3491 8.57257 30.7007 8.9242C31.0524 9.27583 31.2499 9.75274 31.2499 10.25ZM19.3749 10.875C19.4985 10.875 19.6194 10.9117 19.7221 10.9804C19.8249 11.049 19.905 11.1466 19.9523 11.2608C19.9996 11.3751 20.012 11.5007 19.9879 11.622C19.9638 11.7432 19.9043 11.8546 19.8169 11.942C19.7295 12.0294 19.6181 12.0889 19.4968 12.113C19.3756 12.1371 19.2499 12.1248 19.1357 12.0774C19.0215 12.0301 18.9239 11.95 18.8552 11.8473C18.7866 11.7445 18.7499 11.6236 18.7499 11.5C18.7499 11.3343 18.8158 11.1753 18.933 11.0581C19.0502 10.9409 19.2092 10.875 19.3749 10.875Z" fill="#4F89D4"/>
<path d="M18.75 23.375C19.0288 23.3739 19.3038 23.3098 19.5544 23.1875L19.5581 23.1931L20.8081 24.4431C20.9255 24.5599 21.0844 24.6253 21.25 24.625H31.875C32.0408 24.625 32.1997 24.5591 32.317 24.4419C32.4342 24.3247 32.5 24.1658 32.5 24C32.5 23.8342 32.4342 23.6753 32.317 23.5581C32.1997 23.4408 32.0408 23.375 31.875 23.375H21.5088L20.4419 22.3081L20.4363 22.3044C20.5591 22.0539 20.6236 21.7789 20.625 21.5C20.625 21.1292 20.515 20.7666 20.309 20.4583C20.103 20.15 19.8101 19.9096 19.4675 19.7677C19.1249 19.6258 18.7479 19.5887 18.3842 19.661C18.0205 19.7334 17.6864 19.912 17.4242 20.1742C17.162 20.4364 16.9834 20.7705 16.911 21.1342C16.8387 21.4979 16.8758 21.8749 17.0177 22.2175C17.1596 22.5601 17.4 22.853 17.7083 23.059C18.0167 23.265 18.3792 23.375 18.75 23.375ZM18.75 20.875C18.8736 20.875 18.9945 20.9117 19.0972 20.9803C19.2 21.049 19.2801 21.1466 19.3274 21.2608C19.3747 21.375 19.3871 21.5007 19.363 21.6219C19.3389 21.7432 19.2794 21.8545 19.1919 21.9419C19.1045 22.0293 18.9932 22.0889 18.8719 22.113C18.7507 22.1371 18.625 22.1247 18.5108 22.0774C18.3966 22.0301 18.299 21.95 18.2303 21.8472C18.1617 21.7444 18.125 21.6236 18.125 21.5C18.125 21.3342 18.1908 21.1753 18.3081 21.0581C18.4253 20.9408 18.5842 20.875 18.75 20.875Z" fill="#4F89D4"/>
<path d="M30.625 17.125V21.5C30.625 21.6658 30.6908 21.8247 30.8081 21.9419C30.9253 22.0592 31.0842 22.125 31.25 22.125H35.625C35.7908 22.125 35.9497 22.0592 36.0669 21.9419C36.1842 21.8247 36.25 21.6658 36.25 21.5V17.125C36.25 16.9592 36.1842 16.8003 36.0669 16.6831C35.9497 16.5658 35.7908 16.5 35.625 16.5H31.25C31.0842 16.5 30.9253 16.5658 30.8081 16.6831C30.6908 16.8003 30.625 16.9592 30.625 17.125ZM31.875 17.75H35V20.875H31.875V17.75Z" fill="#4F89D4"/>
<path d="M4.375 2.75H3.125C2.95924 2.75 2.80027 2.81585 2.68306 2.93306C2.56585 3.05027 2.5 3.20924 2.5 3.375C2.5 3.54076 2.56585 3.69973 2.68306 3.81694C2.80027 3.93415 2.95924 4 3.125 4H4.375C4.54076 4 4.69973 3.93415 4.81694 3.81694C4.93415 3.69973 5 3.54076 5 3.375C5 3.20924 4.93415 3.05027 4.81694 2.93306C4.69973 2.81585 4.54076 2.75 4.375 2.75Z" fill="#4F89D4"/>
<path d="M13.125 2.75H6.25C6.08424 2.75 5.92527 2.81585 5.80806 2.93306C5.69085 3.05027 5.625 3.20924 5.625 3.375C5.625 3.54076 5.69085 3.69973 5.80806 3.81694C5.92527 3.93415 6.08424 4 6.25 4H13.125C13.2908 4 13.4497 3.93415 13.5669 3.81694C13.6842 3.69973 13.75 3.54076 13.75 3.375C13.75 3.20924 13.6842 3.05027 13.5669 2.93306C13.4497 2.81585 13.2908 2.75 13.125 2.75Z" fill="#4F89D4"/>
<path d="M29.375 18.375H23.125C22.9592 18.375 22.8003 18.4408 22.6831 18.5581C22.5658 18.6753 22.5 18.8342 22.5 19C22.5 19.1658 22.5658 19.3247 22.6831 19.4419C22.8003 19.5592 22.9592 19.625 23.125 19.625H29.375C29.5408 19.625 29.6997 19.5592 29.8169 19.4419C29.9342 19.3247 30 19.1658 30 19C30 18.8342 29.9342 18.6753 29.8169 18.5581C29.6997 18.4408 29.5408 18.375 29.375 18.375Z" fill="#4F89D4"/>
<path d="M29.375 16.5H27.5C27.3342 16.5 27.1753 16.5658 27.0581 16.6831C26.9408 16.8003 26.875 16.9592 26.875 17.125C26.875 17.2908 26.9408 17.4497 27.0581 17.5669C27.1753 17.6842 27.3342 17.75 27.5 17.75H29.375C29.5408 17.75 29.6997 17.6842 29.8169 17.5669C29.9342 17.4497 30 17.2908 30 17.125C30 16.9592 29.9342 16.8003 29.8169 16.6831C29.6997 16.5658 29.5408 16.5 29.375 16.5Z" fill="#4F89D4"/>
</svg>
