<svg width="40" height="40" viewBox="0 0 40 40" fill="none" xmlns="http://www.w3.org/2000/svg">
<path d="M28.125 2.5C28.1252 2.66421 28.093 2.82686 28.0303 2.97861C27.9675 3.13036 27.8755 3.26825 27.7594 3.38437C27.6432 3.50048 27.5054 3.59255 27.3536 3.65529C27.2019 3.71803 27.0392 3.75022 26.875 3.75H13.125C12.7935 3.75 12.4755 3.6183 12.2411 3.38388C12.0067 3.14946 11.875 2.83152 11.875 2.5C11.875 2.16848 12.0067 1.85054 12.2411 1.61612C12.4755 1.3817 12.7935 1.25 13.125 1.25H26.875C27.2065 1.25 27.5245 1.3817 27.7589 1.61612C27.9933 1.85054 28.125 2.16848 28.125 2.5Z" fill="#C1D9F9"/>
<path d="M27.7593 38.75H12.2405C8.57882 38.75 6.15929 34.9438 7.7132 31.6282L13.7499 18.75V15.9375L14.6093 15.9805C15.8866 16.1219 16.1671 16.5625 17.9163 16.5625C18.6235 16.5773 19.3281 16.4716 19.9999 16.25C20.6714 16.0284 21.3757 15.9227 22.0827 15.9375C23.8319 15.9375 24.1124 16.3782 25.3905 16.5196C25.676 16.5495 25.9629 16.5638 26.2499 16.5625V18.75L32.2866 31.6282C33.8405 34.9438 31.421 38.75 27.7593 38.75Z" fill="#C1D9F9"/>
<path d="M14.6094 15.9805L13.75 15.9375C14.037 15.9362 14.3239 15.9506 14.6094 15.9805Z" fill="#C1D9F9"/>
<path d="M26.25 16.5625C25.963 16.5638 25.6761 16.5494 25.3906 16.5195L26.25 16.5625Z" fill="#C1D9F9"/>
<path d="M14.6094 15.9805L13.75 15.9375C14.037 15.9362 14.3239 15.9506 14.6094 15.9805Z" fill="#C1D9F9"/>
<path d="M26.25 16.5625C25.963 16.5638 25.6761 16.5494 25.3906 16.5195L26.25 16.5625Z" fill="#C1D9F9"/>
<path d="M15.625 6.875H18.125C18.2908 6.875 18.4497 6.80915 18.5669 6.69194C18.6842 6.57473 18.75 6.41576 18.75 6.25C18.75 6.08424 18.6842 5.92527 18.5669 5.80806C18.4497 5.69085 18.2908 5.625 18.125 5.625H15.625C15.4592 5.625 15.3003 5.69085 15.1831 5.80806C15.0658 5.92527 15 6.08424 15 6.25C15 6.41576 15.0658 6.57473 15.1831 6.69194C15.3003 6.80915 15.4592 6.875 15.625 6.875Z" fill="#4F89D4"/>
<path d="M15.625 8.75H18.125C18.2908 8.75 18.4497 8.68415 18.5669 8.56694C18.6842 8.44973 18.75 8.29076 18.75 8.125C18.75 7.95924 18.6842 7.80027 18.5669 7.68306C18.4497 7.56585 18.2908 7.5 18.125 7.5H15.625C15.4592 7.5 15.3003 7.56585 15.1831 7.68306C15.0658 7.80027 15 7.95924 15 8.125C15 8.29076 15.0658 8.44973 15.1831 8.56694C15.3003 8.68415 15.4592 8.75 15.625 8.75Z" fill="#4F89D4"/>
<path d="M15.625 10.625H18.125C18.2908 10.625 18.4497 10.5592 18.5669 10.4419C18.6842 10.3247 18.75 10.1658 18.75 10C18.75 9.83424 18.6842 9.67527 18.5669 9.55806C18.4497 9.44085 18.2908 9.375 18.125 9.375H15.625C15.4592 9.375 15.3003 9.44085 15.1831 9.55806C15.0658 9.67527 15 9.83424 15 10C15 10.1658 15.0658 10.3247 15.1831 10.4419C15.3003 10.5592 15.4592 10.625 15.625 10.625Z" fill="#4F89D4"/>
<path d="M32.8522 31.3625L26.8749 18.6109V4.375C27.3722 4.375 27.8491 4.17746 28.2007 3.82583C28.5523 3.47419 28.7499 2.99728 28.7499 2.5C28.7499 2.00272 28.5523 1.52581 28.2007 1.17417C27.8491 0.822544 27.3722 0.625 26.8749 0.625H13.1249C12.6276 0.625 12.1507 0.822544 11.7991 1.17417C11.4474 1.52581 11.2499 2.00272 11.2499 2.5C11.2499 2.99728 11.4474 3.47419 11.7991 3.82583C12.1507 4.17746 12.6276 4.375 13.1249 4.375V18.6109L7.14754 31.3625C6.7457 32.2197 6.56673 33.1645 6.62721 34.1094C6.6877 35.0542 6.98568 35.9684 7.49355 36.7674C8.00142 37.5664 8.70274 38.2243 9.53254 38.6801C10.3623 39.136 11.2938 39.375 12.2405 39.375H27.7593C28.706 39.375 29.6374 39.136 30.4672 38.6801C31.297 38.2243 31.9984 37.5664 32.5062 36.7674C33.0141 35.9684 33.3121 35.0542 33.3726 34.1094C33.433 33.1645 33.2541 32.2197 32.8522 31.3625ZM12.4999 2.5C12.5001 2.33431 12.566 2.17547 12.6832 2.05831C12.8004 1.94115 12.9592 1.87523 13.1249 1.875H26.8749C27.0407 1.875 27.1996 1.94085 27.3168 2.05806C27.434 2.17527 27.4999 2.33424 27.4999 2.5C27.4999 2.66576 27.434 2.82473 27.3168 2.94194C27.1996 3.05915 27.0407 3.125 26.8749 3.125H13.1249C12.9592 3.12477 12.8004 3.05885 12.6832 2.94169C12.566 2.82453 12.5001 2.66569 12.4999 2.5ZM25.6249 4.375V15.9141C25.1898 15.8765 24.7606 15.7884 24.346 15.6516C23.6158 15.4127 22.8508 15.2981 22.0827 15.3125C21.3149 15.2981 20.5501 15.4127 19.8202 15.6516C19.2065 15.8548 18.5626 15.9515 17.9163 15.9375C17.27 15.9515 16.6261 15.8548 16.0124 15.6516C15.4819 15.4778 14.9318 15.371 14.3749 15.3336V4.375H25.6249ZM31.4515 36.0969C31.0579 36.7198 30.5128 37.2326 29.867 37.5873C29.2213 37.942 28.496 38.127 27.7593 38.125H12.2405C11.5042 38.1249 10.7797 37.939 10.1344 37.5845C9.48899 37.2299 8.94354 36.7182 8.54856 36.0968C8.15358 35.4753 7.92185 34.7642 7.87483 34.0294C7.82781 33.2945 7.96702 32.5597 8.27958 31.893L14.3155 19.0156C14.3545 18.9325 14.3748 18.8418 14.3749 18.75V16.5859C14.8099 16.6235 15.2391 16.7116 15.6538 16.8484C16.3836 17.0874 17.1485 17.202 17.9163 17.1875C18.6841 17.202 19.4489 17.0874 20.1788 16.8484C20.7925 16.6452 21.4364 16.5485 22.0827 16.5625C22.729 16.5485 23.3729 16.6452 23.9866 16.8484C24.5173 17.0222 25.0677 17.129 25.6249 17.1664V18.75C25.625 18.8418 25.6453 18.9325 25.6843 19.0156L31.7202 31.893C32.0348 32.5592 32.1751 33.2943 32.1281 34.0296C32.0811 34.7648 31.8483 35.4761 31.4515 36.0969Z" fill="#4F89D4"/>
</svg>
