<svg width="40" height="32" viewBox="0 0 40 32" fill="none" xmlns="http://www.w3.org/2000/svg">
<path d="M38.75 22.875V24.125C38.7499 24.6222 38.5523 25.0991 38.2007 25.4507C37.8491 25.8023 37.3722 25.9999 36.875 26H3.125C2.62776 25.9999 2.15092 25.8023 1.79931 25.4507C1.44771 25.0991 1.25012 24.6222 1.25 24.125V22.875H38.75Z" fill="#C1D9F9"/>
<path d="M13.75 12.25L16.875 14.125V17.875L13.75 19.75L10.625 17.875V14.125L13.75 12.25Z" fill="#C1D9F9"/>
<path d="M20.625 10.375L17.5 12.25L14.375 10.375V6.625L17.5 4.75L20.625 6.625V10.375Z" fill="#C1D9F9"/>
<path d="M21.875 12.25L25 14.125V17.875L21.875 19.75L18.75 17.875V14.125L21.875 12.25Z" fill="#C1D9F9"/>
<path d="M28.75 6.625V10.375L25.625 12.25L22.5 10.375V6.625L25.625 4.75L28.75 6.625Z" fill="#C1D9F9"/>
<path d="M12.5 29.125H27.5V31H12.5V29.125Z" fill="#C1D9F9"/>
<path d="M16.875 14.125V17.875L13.75 19.75L10.625 17.875V14.125L13.75 12.25L16.875 14.125Z" fill="#4F89D4"/>
<path d="M20.625 6.625V10.375L17.5 12.25L14.375 10.375V6.625L17.5 4.75L20.625 6.625Z" fill="#4F89D4"/>
<path d="M25 14.125V17.875L21.875 19.75L18.75 17.875V14.125L21.875 12.25L25 14.125Z" fill="#4F89D4"/>
<path d="M28.75 6.625V10.375L25.625 12.25L22.5 10.375V6.625L25.625 4.75L28.75 6.625Z" fill="#4F89D4"/>
<path d="M36.875 0.375H3.125C2.46219 0.375744 1.82673 0.639376 1.35806 1.10806C0.889376 1.57674 0.625744 2.21219 0.625 2.875V24.125C0.625744 24.7878 0.889376 25.4233 1.35806 25.8919C1.82673 26.3606 2.46219 26.6243 3.125 26.625H15.3266L14.5766 28.5H12.5C12.3342 28.5 12.1753 28.5658 12.0581 28.6831C11.9408 28.8003 11.875 28.9592 11.875 29.125V30.375H6.875C6.70924 30.375 6.55027 30.4408 6.43306 30.5581C6.31585 30.6753 6.25 30.8342 6.25 31C6.25 31.1658 6.31585 31.3247 6.43306 31.4419C6.55027 31.5592 6.70924 31.625 6.875 31.625H33.125C33.2908 31.625 33.4497 31.5592 33.5669 31.4419C33.6842 31.3247 33.75 31.1658 33.75 31C33.75 30.8342 33.6842 30.6753 33.5669 30.5581C33.4497 30.4408 33.2908 30.375 33.125 30.375H28.125V29.125C28.125 28.9592 28.0592 28.8003 27.9419 28.6831C27.8247 28.5658 27.6658 28.5 27.5 28.5H25.4234L24.6734 26.625H36.875C37.5378 26.6243 38.1733 26.3606 38.6419 25.8919C39.1106 25.4233 39.3743 24.7878 39.375 24.125V2.875C39.3743 2.21219 39.1106 1.57674 38.6419 1.10806C38.1733 0.639376 37.5378 0.375744 36.875 0.375ZM26.875 29.75V30.375H13.125V29.75H26.875ZM15.9234 28.5L16.6734 26.625H23.3266L24.0766 28.5H15.9234ZM38.125 24.125C38.1246 24.4564 37.9927 24.7741 37.7584 25.0084C37.5241 25.2427 37.2064 25.3746 36.875 25.375H3.125C2.79361 25.3746 2.47592 25.2427 2.2416 25.0084C2.00727 24.7741 1.87543 24.4564 1.875 24.125V23.5H38.125V24.125ZM38.125 22.25H1.875V2.875C1.87543 2.54361 2.00727 2.22592 2.2416 1.9916C2.47592 1.75727 2.79361 1.62543 3.125 1.625H36.875C37.2064 1.62543 37.5241 1.75727 37.7584 1.9916C37.9927 2.22592 38.1246 2.54361 38.125 2.875V22.25Z" fill="#4F89D4"/>
<path d="M5.375 5.5H9.75C9.91576 5.5 10.0747 5.43415 10.1919 5.31694C10.3092 5.19973 10.375 5.04076 10.375 4.875C10.375 4.70924 10.3092 4.55027 10.1919 4.43306C10.0747 4.31585 9.91576 4.25 9.75 4.25H5.375C5.20924 4.25 5.05027 4.31585 4.93306 4.43306C4.81585 4.55027 4.75 4.70924 4.75 4.875C4.75 5.04076 4.81585 5.19973 4.93306 5.31694C5.05027 5.43415 5.20924 5.5 5.375 5.5Z" fill="#4F89D4"/>
<path d="M5.375 7.375H9.75C9.91576 7.375 10.0747 7.30915 10.1919 7.19194C10.3092 7.07473 10.375 6.91576 10.375 6.75C10.375 6.58424 10.3092 6.42527 10.1919 6.30806C10.0747 6.19085 9.91576 6.125 9.75 6.125H5.375C5.20924 6.125 5.05027 6.19085 4.93306 6.30806C4.81585 6.42527 4.75 6.58424 4.75 6.75C4.75 6.91576 4.81585 7.07473 4.93306 7.19194C5.05027 7.30915 5.20924 7.375 5.375 7.375Z" fill="#4F89D4"/>
<path d="M5.375 9.25H9.75C9.91576 9.25 10.0747 9.18415 10.1919 9.06694C10.3092 8.94973 10.375 8.79076 10.375 8.625C10.375 8.45924 10.3092 8.30027 10.1919 8.18306C10.0747 8.06585 9.91576 8 9.75 8H5.375C5.20924 8 5.05027 8.06585 4.93306 8.18306C4.81585 8.30027 4.75 8.45924 4.75 8.625C4.75 8.79076 4.81585 8.94973 4.93306 9.06694C5.05027 9.18415 5.20924 9.25 5.375 9.25Z" fill="#4F89D4"/>
<path d="M30.25 15.875H34.625C34.7908 15.875 34.9497 15.8092 35.0669 15.6919C35.1842 15.5747 35.25 15.4158 35.25 15.25C35.25 15.0842 35.1842 14.9253 35.0669 14.8081C34.9497 14.6908 34.7908 14.625 34.625 14.625H30.25C30.0842 14.625 29.9253 14.6908 29.8081 14.8081C29.6908 14.9253 29.625 15.0842 29.625 15.25C29.625 15.4158 29.6908 15.5747 29.8081 15.6919C29.9253 15.8092 30.0842 15.875 30.25 15.875Z" fill="#4F89D4"/>
<path d="M30.25 17.75H34.625C34.7908 17.75 34.9497 17.6842 35.0669 17.5669C35.1842 17.4497 35.25 17.2908 35.25 17.125C35.25 16.9592 35.1842 16.8003 35.0669 16.6831C34.9497 16.5658 34.7908 16.5 34.625 16.5H30.25C30.0842 16.5 29.9253 16.5658 29.8081 16.6831C29.6908 16.8003 29.625 16.9592 29.625 17.125C29.625 17.2908 29.6908 17.4497 29.8081 17.5669C29.9253 17.6842 30.0842 17.75 30.25 17.75Z" fill="#4F89D4"/>
<path d="M30.25 19.625H32.125C32.2908 19.625 32.4497 19.5592 32.5669 19.4419C32.6842 19.3247 32.75 19.1658 32.75 19C32.75 18.8342 32.6842 18.6753 32.5669 18.5581C32.4497 18.4408 32.2908 18.375 32.125 18.375H30.25C30.0842 18.375 29.9253 18.4408 29.8081 18.5581C29.6908 18.6753 29.625 18.8342 29.625 19C29.625 19.1658 29.6908 19.3247 29.8081 19.4419C29.9253 19.5592 30.0842 19.625 30.25 19.625Z" fill="#4F89D4"/>
</svg>
