<svg width="40" height="40" viewBox="0 0 40 40" fill="none" xmlns="http://www.w3.org/2000/svg">
<path d="M23.75 16.25H1.25C1.08424 16.25 0.925268 16.3158 0.808058 16.4331C0.690848 16.5503 0.625 16.7092 0.625 16.875C0.625 17.0408 0.690848 17.1997 0.808058 17.3169C0.925268 17.4342 1.08424 17.5 1.25 17.5H2.5V36.875C2.50087 37.5378 2.76454 38.1732 3.23319 38.6418C3.70184 39.1105 4.33723 39.3741 5 39.375H20C20.6628 39.3741 21.2982 39.1105 21.7668 38.6418C22.2355 38.1732 22.4991 37.5378 22.5 36.875V17.5H23.75C23.9158 17.5 24.0747 17.4342 24.1919 17.3169C24.3092 17.1997 24.375 17.0408 24.375 16.875C24.375 16.7092 24.3092 16.5503 24.1919 16.4331C24.0747 16.3158 23.9158 16.25 23.75 16.25ZM21.25 36.875C21.2496 37.2064 21.1177 37.5241 20.8834 37.7584C20.6491 37.9927 20.3314 38.1246 20 38.125H5C4.66861 38.1246 4.35092 37.9927 4.1166 37.7584C3.88227 37.5241 3.75043 37.2064 3.75 36.875V29.6969C4.54988 29.7181 5.34591 29.8154 6.12734 29.9875C6.925 30.1477 7.75078 30.3125 9.375 30.3125C10.9992 30.3125 11.8242 30.1477 12.6227 29.9875C13.3945 29.8336 14.1242 29.6875 15.625 29.6875C17.1258 29.6875 17.8547 29.8336 18.6273 29.9875C19.4894 30.1765 20.3677 30.2825 21.25 30.3039V36.875ZM21.25 29.0531C20.4501 29.0319 19.6541 28.9346 18.8727 28.7625C18.0742 28.6023 17.2492 28.4375 15.625 28.4375C14.0008 28.4375 13.175 28.6023 12.3773 28.7625C11.6047 28.9164 10.8758 29.0625 9.375 29.0625C7.87422 29.0625 7.14453 28.9164 6.37266 28.7625C5.51055 28.5735 4.63232 28.4675 3.75 28.4461V17.5H21.25V29.0531Z" fill="#4F89D4"/>
<path d="M5.625 20H10C10.1658 20 10.3247 19.9342 10.4419 19.8169C10.5592 19.6997 10.625 19.5408 10.625 19.375C10.625 19.2092 10.5592 19.0503 10.4419 18.9331C10.3247 18.8158 10.1658 18.75 10 18.75H5.625C5.45924 18.75 5.30027 18.8158 5.18306 18.9331C5.06585 19.0503 5 19.2092 5 19.375C5 19.5408 5.06585 19.6997 5.18306 19.8169C5.30027 19.9342 5.45924 20 5.625 20Z" fill="#4F89D4"/>
<path d="M5.625 21.875H10C10.1658 21.875 10.3247 21.8092 10.4419 21.6919C10.5592 21.5747 10.625 21.4158 10.625 21.25C10.625 21.0842 10.5592 20.9253 10.4419 20.8081C10.3247 20.6908 10.1658 20.625 10 20.625H5.625C5.45924 20.625 5.30027 20.6908 5.18306 20.8081C5.06585 20.9253 5 21.0842 5 21.25C5 21.4158 5.06585 21.5747 5.18306 21.6919C5.30027 21.8092 5.45924 21.875 5.625 21.875Z" fill="#4F89D4"/>
<path d="M5.625 23.75H10C10.1658 23.75 10.3247 23.6842 10.4419 23.5669C10.5592 23.4497 10.625 23.2908 10.625 23.125C10.625 22.9592 10.5592 22.8003 10.4419 22.6831C10.3247 22.5658 10.1658 22.5 10 22.5H5.625C5.45924 22.5 5.30027 22.5658 5.18306 22.6831C5.06585 22.8003 5 22.9592 5 23.125C5 23.2908 5.06585 23.4497 5.18306 23.5669C5.30027 23.6842 5.45924 23.75 5.625 23.75Z" fill="#4F89D4"/>
<path d="M35.625 0.625H15C14.8342 0.625 14.6753 0.690848 14.5581 0.808058C14.4408 0.925268 14.375 1.08424 14.375 1.25V8.75C14.3751 8.85652 14.4024 8.96124 14.4543 9.05425C14.5062 9.14726 14.581 9.22548 14.6716 9.2815C14.7622 9.33752 14.8656 9.36948 14.972 9.37436C15.0785 9.37924 15.1843 9.35687 15.2797 9.30938L17.6477 8.125H35.625C36.6196 8.125 37.5734 7.72991 38.2767 7.02665C38.9799 6.32339 39.375 5.36956 39.375 4.375C39.375 3.38044 38.9799 2.42661 38.2767 1.72335C37.5734 1.02009 36.6196 0.625 35.625 0.625ZM35.625 6.875H17.5C17.403 6.87509 17.3073 6.89755 17.2203 6.94062L15.625 7.73906V1.875H19.375V3.125C19.375 3.29076 19.4408 3.44973 19.5581 3.56694C19.6753 3.68415 19.8342 3.75 20 3.75C20.1658 3.75 20.3247 3.68415 20.4419 3.56694C20.5592 3.44973 20.625 3.29076 20.625 3.125V1.875H21.875V3.125C21.875 3.29076 21.9408 3.44973 22.0581 3.56694C22.1753 3.68415 22.3342 3.75 22.5 3.75C22.6658 3.75 22.8247 3.68415 22.9419 3.56694C23.0592 3.44973 23.125 3.29076 23.125 3.125V1.875H24.375V3.125C24.375 3.29076 24.4408 3.44973 24.5581 3.56694C24.6753 3.68415 24.8342 3.75 25 3.75C25.1658 3.75 25.3247 3.68415 25.4419 3.56694C25.5592 3.44973 25.625 3.29076 25.625 3.125V1.875H26.875V3.125C26.875 3.29076 26.9408 3.44973 27.0581 3.56694C27.1753 3.68415 27.3342 3.75 27.5 3.75C27.6658 3.75 27.8247 3.68415 27.9419 3.56694C28.0592 3.44973 28.125 3.29076 28.125 3.125V1.875H29.375V3.125C29.375 3.29076 29.4408 3.44973 29.5581 3.56694C29.6753 3.68415 29.8342 3.75 30 3.75C30.1658 3.75 30.3247 3.68415 30.4419 3.56694C30.5592 3.44973 30.625 3.29076 30.625 3.125V1.875H31.875V3.125C31.875 3.29076 31.9408 3.44973 32.0581 3.56694C32.1753 3.68415 32.3342 3.75 32.5 3.75C32.6658 3.75 32.8247 3.68415 32.9419 3.56694C33.0592 3.44973 33.125 3.29076 33.125 3.125V1.875H35.625C36.288 1.875 36.9239 2.13839 37.3928 2.60723C37.8616 3.07607 38.125 3.71196 38.125 4.375C38.125 5.03804 37.8616 5.67393 37.3928 6.14277C36.9239 6.61161 36.288 6.875 35.625 6.875Z" fill="#4F89D4"/>
<path d="M12.5 14.375C12.8708 14.375 13.2333 14.265 13.5417 14.059C13.85 13.853 14.0904 13.5601 14.2323 13.2175C14.3742 12.8749 14.4113 12.4979 14.339 12.1342C14.2666 11.7705 14.088 11.4364 13.8258 11.1742C13.5636 10.912 13.2295 10.7334 12.8658 10.661C12.5021 10.5887 12.1251 10.6258 11.7825 10.7677C11.4399 10.9096 11.147 11.15 10.941 11.4583C10.735 11.7666 10.625 12.1292 10.625 12.5C10.6256 12.9971 10.8233 13.4737 11.1748 13.8252C11.5263 14.1767 12.0029 14.3744 12.5 14.375ZM12.5 11.875C12.6236 11.875 12.7444 11.9117 12.8472 11.9803C12.95 12.049 13.0301 12.1466 13.0774 12.2608C13.1247 12.375 13.1371 12.5007 13.113 12.6219C13.0889 12.7432 13.0293 12.8545 12.9419 12.9419C12.8545 13.0293 12.7432 13.0889 12.6219 13.113C12.5007 13.1371 12.375 13.1247 12.2608 13.0774C12.1466 13.0301 12.049 12.95 11.9803 12.8472C11.9117 12.7444 11.875 12.6236 11.875 12.5C11.8752 12.3343 11.9411 12.1754 12.0583 12.0583C12.1754 11.9411 12.3343 11.8752 12.5 11.875Z" fill="#4F89D4"/>
<path d="M8.75 31.875C8.37916 31.875 8.01665 31.985 7.70831 32.191C7.39996 32.397 7.15964 32.6899 7.01773 33.0325C6.87581 33.3751 6.83868 33.7521 6.91103 34.1158C6.98338 34.4795 7.16195 34.8136 7.42418 35.0758C7.6864 35.3381 8.02049 35.5166 8.38421 35.589C8.74792 35.6613 9.12492 35.6242 9.46753 35.4823C9.81014 35.3404 10.103 35.1 10.309 34.7917C10.515 34.4834 10.625 34.1208 10.625 33.75C10.6244 33.2529 10.4267 32.7763 10.0752 32.4248C9.72368 32.0733 9.2471 31.8756 8.75 31.875ZM8.75 34.375C8.62639 34.375 8.50555 34.3383 8.40277 34.2697C8.29999 34.201 8.21988 34.1034 8.17257 33.9892C8.12527 33.875 8.11289 33.7493 8.13701 33.6281C8.16112 33.5068 8.22065 33.3955 8.30806 33.3081C8.39547 33.2207 8.50683 33.1611 8.62807 33.137C8.74931 33.1129 8.87497 33.1253 8.98918 33.1726C9.10338 33.2199 9.20099 33.3 9.26967 33.4028C9.33834 33.5056 9.375 33.6264 9.375 33.75C9.37481 33.9157 9.3089 34.0746 9.19173 34.1917C9.07456 34.3089 8.9157 34.3748 8.75 34.375Z" fill="#4F89D4"/>
<path d="M14.375 23.75C14.7202 23.75 15 23.4702 15 23.125C15 22.7798 14.7202 22.5 14.375 22.5C14.0298 22.5 13.75 22.7798 13.75 23.125C13.75 23.4702 14.0298 23.75 14.375 23.75Z" fill="#4F89D4"/>
<path d="M18.125 21.25C18.4702 21.25 18.75 20.9702 18.75 20.625C18.75 20.2798 18.4702 20 18.125 20C17.7798 20 17.5 20.2798 17.5 20.625C17.5 20.9702 17.7798 21.25 18.125 21.25Z" fill="#4F89D4"/>
</svg>
