<svg width="40" height="40" viewBox="0 0 40 40" fill="none" xmlns="http://www.w3.org/2000/svg">
<path d="M38.75 16.875H35.3109C34.9099 14.9161 34.1377 13.0521 33.0359 11.3836L35.468 8.95156C35.585 8.83418 35.6508 8.67516 35.6508 8.50937C35.6508 8.34359 35.585 8.18457 35.468 8.06719L31.9328 4.53203C31.8154 4.41496 31.6564 4.34921 31.4906 4.34921C31.3248 4.34921 31.1658 4.41496 31.0484 4.53203L28.6164 6.96406C26.9479 5.86231 25.0839 5.09009 23.125 4.68906V1.25C23.125 1.08424 23.0592 0.925268 22.9419 0.808058C22.8247 0.690848 22.6658 0.625 22.5 0.625H17.5C17.3342 0.625 17.1753 0.690848 17.0581 0.808058C16.9408 0.925268 16.875 1.08424 16.875 1.25V4.68906C14.9161 5.09009 13.0521 5.86231 11.3836 6.96406L8.95156 4.53203C8.83418 4.41496 8.67516 4.34921 8.50937 4.34921C8.34359 4.34921 8.18457 4.41496 8.06719 4.53203L4.53203 8.06719C4.41496 8.18457 4.34921 8.34359 4.34921 8.50937C4.34921 8.67516 4.41496 8.83418 4.53203 8.95156L6.96406 11.3836C5.86231 13.0521 5.09009 14.9161 4.68906 16.875H1.25C1.08424 16.875 0.925268 16.9408 0.808058 17.0581C0.690848 17.1753 0.625 17.3342 0.625 17.5V22.5C0.625 22.6658 0.690848 22.8247 0.808058 22.9419C0.925268 23.0592 1.08424 23.125 1.25 23.125H4.68906C5.09009 25.0839 5.86231 26.9479 6.96406 28.6164L4.53203 31.0484C4.41496 31.1658 4.34921 31.3248 4.34921 31.4906C4.34921 31.6564 4.41496 31.8154 4.53203 31.9328L8.06719 35.468C8.18457 35.585 8.34359 35.6508 8.50937 35.6508C8.67516 35.6508 8.83418 35.585 8.95156 35.468L11.3836 33.0359C13.0521 34.1377 14.9161 34.9099 16.875 35.3109V38.75C16.875 38.9158 16.9408 39.0747 17.0581 39.1919C17.1753 39.3092 17.3342 39.375 17.5 39.375H22.5C22.6658 39.375 22.8247 39.3092 22.9419 39.1919C23.0592 39.0747 23.125 38.9158 23.125 38.75V35.3109C25.0839 34.9099 26.9479 34.1377 28.6164 33.0359L31.0484 35.468C31.1658 35.585 31.3248 35.6508 31.4906 35.6508C31.6564 35.6508 31.8154 35.585 31.9328 35.468L35.468 31.9328C35.585 31.8154 35.6508 31.6564 35.6508 31.4906C35.6508 31.3248 35.585 31.1658 35.468 31.0484L33.0359 28.6164C34.1377 26.9479 34.9099 25.0839 35.3109 23.125H38.75C38.9158 23.125 39.0747 23.0592 39.1919 22.9419C39.3092 22.8247 39.375 22.6658 39.375 22.5V17.5C39.375 17.3342 39.3092 17.1753 39.1919 17.0581C39.0747 16.9408 38.9158 16.875 38.75 16.875ZM38.125 21.875H34.7914C34.6435 21.875 34.5004 21.9274 34.3876 22.023C34.2747 22.1186 34.1994 22.251 34.175 22.3969C33.813 24.534 32.9731 26.5617 31.718 28.3289C31.632 28.4493 31.5916 28.5962 31.6039 28.7436C31.6162 28.8909 31.6805 29.0292 31.7852 29.1336L34.1422 31.4906L31.4906 34.1422L29.1336 31.7852C29.0291 31.6806 28.8909 31.6165 28.7436 31.6042C28.5962 31.5919 28.4493 31.6322 28.3289 31.718C26.5617 32.9731 24.534 33.813 22.3969 34.175C22.251 34.1994 22.1186 34.2747 22.023 34.3876C21.9274 34.5004 21.875 34.6435 21.875 34.7914V38.125H18.125V34.7914C18.125 34.6435 18.0726 34.5004 17.977 34.3876C17.8814 34.2747 17.749 34.1994 17.6031 34.175C15.466 33.813 13.4383 32.9731 11.6711 31.718C11.5507 31.6322 11.4038 31.5919 11.2564 31.6042C11.1091 31.6165 10.9709 31.6806 10.8664 31.7852L8.50937 34.1422L5.85781 31.4906L8.21484 29.1336C8.31955 29.0292 8.38377 28.8909 8.39608 28.7436C8.40838 28.5962 8.36797 28.4493 8.28203 28.3289C7.02692 26.5617 6.18703 24.534 5.825 22.3969C5.8006 22.251 5.72528 22.1186 5.61242 22.023C5.49956 21.9274 5.35647 21.875 5.20859 21.875H1.875V18.125H5.20859C5.35647 18.125 5.49956 18.0726 5.61242 17.977C5.72528 17.8814 5.8006 17.749 5.825 17.6031C6.18703 15.466 7.02692 13.4383 8.28203 11.6711C8.36797 11.5507 8.40838 11.4038 8.39608 11.2564C8.38377 11.1091 8.31955 10.9708 8.21484 10.8664L5.85781 8.50937L8.50937 5.85781L10.8664 8.21484C10.9709 8.31941 11.1091 8.38353 11.2564 8.39583C11.4038 8.40813 11.5507 8.36781 11.6711 8.28203C13.4383 7.02692 15.466 6.18703 17.6031 5.825C17.749 5.8006 17.8814 5.72528 17.977 5.61242C18.0726 5.49956 18.125 5.35647 18.125 5.20859V1.875H21.875V5.20859C21.875 5.35647 21.9274 5.49956 22.023 5.61242C22.1186 5.72528 22.251 5.8006 22.3969 5.825C24.534 6.18703 26.5617 7.02692 28.3289 8.28203C28.4493 8.36781 28.5962 8.40813 28.7436 8.39583C28.8909 8.38353 29.0291 8.31941 29.1336 8.21484L31.4906 5.85781L34.1422 8.50937L31.7852 10.8664C31.6805 10.9708 31.6162 11.1091 31.6039 11.2564C31.5916 11.4038 31.632 11.5507 31.718 11.6711C32.9731 13.4383 33.813 15.466 34.175 17.6031C34.1994 17.749 34.2747 17.8814 34.3876 17.977C34.5004 18.0726 34.6435 18.125 34.7914 18.125H38.125V21.875Z" fill="#4F89D4"/>
<path d="M20 7.5C13.1078 7.5 7.5 13.1078 7.5 20C7.50143 21.8637 7.91927 23.7035 8.72297 25.385C9.52668 27.0666 10.6959 28.5472 12.1453 29.7189C13.5947 30.8905 15.2875 31.7235 17.1001 32.157C18.9127 32.5904 20.7993 32.6134 22.6219 32.2242C22.6244 32.2233 22.627 32.2227 22.6297 32.2227C22.6301 32.2222 22.6307 32.222 22.6312 32.2219C25.4254 31.6196 27.9289 30.0781 29.7246 27.8542C31.5203 25.6304 32.4998 22.8584 32.5 20C32.5 13.1078 26.8922 7.5 20 7.5ZM22.2219 21.9797C22.1177 22.0316 22.0301 22.1115 21.9688 22.2105C21.9075 22.3094 21.8751 22.4235 21.875 22.5398V31.093C20.7643 31.2783 19.6322 31.2983 18.5156 31.1523L18.4969 31.15C18.4125 31.1383 18.3281 31.1266 18.2438 31.1133C18.2266 31.1102 18.2094 31.1078 18.1922 31.1047C18.1695 31.1016 18.1477 31.0969 18.125 31.093V22.5398C18.1249 22.4235 18.0925 22.3094 18.0312 22.2105C17.9699 22.1115 17.8823 22.0316 17.7781 21.9797C16.9678 21.5776 16.2818 20.9633 15.793 20.2021C15.3042 19.441 15.031 18.5616 15.0025 17.6574C14.9739 16.7533 15.1911 15.8584 15.6309 15.068C16.0707 14.2775 16.7167 13.6211 17.5 13.1687V17.5C17.5002 17.6029 17.5256 17.7041 17.5741 17.7949C17.6226 17.8856 17.6927 17.963 17.7781 18.0203L19.6531 19.2703C19.7559 19.3387 19.8766 19.3752 20 19.3752C20.1234 19.3752 20.2441 19.3387 20.3469 19.2703L22.2219 18.0203C22.3073 17.963 22.3774 17.8856 22.4259 17.7949C22.4744 17.7041 22.4998 17.6029 22.5 17.5V13.1687C23.2833 13.6211 23.9293 14.2775 24.3691 15.068C24.8089 15.8584 25.0261 16.7533 24.9975 17.6574C24.969 18.5616 24.6958 19.441 24.207 20.2021C23.7182 20.9633 23.0322 21.5776 22.2219 21.9797ZM28.7133 27.1172C27.2661 28.884 25.3179 30.1712 23.125 30.8094V22.9141C24.1596 22.3165 25.0013 21.435 25.5504 20.3739C26.0996 19.3128 26.3332 18.1166 26.2236 16.9268C26.1141 15.7371 25.6659 14.6037 24.9322 13.6607C24.1985 12.7178 23.2099 12.0048 22.0836 11.6062C21.9893 11.5729 21.8884 11.5626 21.7894 11.5763C21.6903 11.59 21.596 11.6273 21.5143 11.685C21.4326 11.7427 21.366 11.8192 21.32 11.908C21.274 11.9968 21.25 12.0953 21.25 12.1953V17.1656L20 17.9984L18.75 17.1656V12.1953C18.75 12.0953 18.726 11.9968 18.68 11.908C18.634 11.8192 18.5674 11.7427 18.4857 11.685C18.404 11.6273 18.3097 11.59 18.2106 11.5763C18.1116 11.5626 18.0107 11.5729 17.9164 11.6062C16.7901 12.0048 15.8015 12.7178 15.0678 13.6607C14.3341 14.6037 13.8859 15.7371 13.7764 16.9268C13.6668 18.1166 13.9004 19.3128 14.4496 20.3739C14.9987 21.435 15.8404 22.3165 16.875 22.9141V30.8094C14.5323 30.1314 12.4732 28.7107 11.0078 26.7612C9.5424 24.8117 8.75004 22.4389 8.75 20C8.75 13.7969 13.7969 8.75 20 8.75C26.2031 8.75 31.25 13.7969 31.25 20C31.2485 22.5936 30.3526 25.1073 28.7133 27.1172Z" fill="#4F89D4"/>
</svg>
