<svg width="39" height="35" viewBox="0 0 39 35" fill="none" xmlns="http://www.w3.org/2000/svg">
<path d="M32.5 19.1875C32.5001 19.3927 32.4597 19.5959 32.3812 19.7855C32.3027 19.9751 32.1876 20.1474 32.0425 20.2925C31.8974 20.4376 31.7251 20.5527 31.5355 20.6312C31.3459 20.7097 31.1427 20.7501 30.9375 20.75H15.625V26.0625C15.6249 26.2677 15.6653 26.4709 15.7438 26.6605C15.8223 26.8501 15.9374 27.0224 16.0825 27.1675C16.2276 27.3126 16.3999 27.4277 16.5895 27.5062C16.7791 27.5847 16.9823 27.6251 17.1875 27.625H28.75L35 33.875V27.625H36.5625C36.7677 27.6251 36.9709 27.5847 37.1605 27.5062C37.3501 27.4277 37.5224 27.3126 37.6675 27.1675C37.8126 27.0224 37.9277 26.8501 38.0062 26.6605C38.0847 26.4709 38.1251 26.2677 38.125 26.0625V9.1875C38.1251 8.98229 38.0847 8.77908 38.0062 8.58948C37.9277 8.39989 37.8126 8.22761 37.6675 8.08251C37.5224 7.9374 37.3501 7.82231 37.1605 7.74381C36.9709 7.66531 36.7677 7.62494 36.5625 7.625H32.5V19.1875Z" fill="#C1D9F9"/>
<path d="M36.5625 7H33.125V2.3125C33.1244 1.73254 32.8937 1.17651 32.4836 0.766412C32.0735 0.356315 31.5175 0.125641 30.9375 0.125H2.8125C2.23254 0.125641 1.67651 0.356315 1.26641 0.766412C0.856315 1.17651 0.625641 1.73254 0.625 2.3125V19.1875C0.625641 19.7675 0.856315 20.3235 1.26641 20.7336C1.67651 21.1437 2.23254 21.3744 2.8125 21.375H4.375V27C4.3749 27.1237 4.41151 27.2446 4.48017 27.3475C4.54884 27.4504 4.64649 27.5305 4.76076 27.5779C4.87502 27.6252 5.00076 27.6376 5.12207 27.6135C5.24337 27.5893 5.35478 27.5297 5.44219 27.4422L11.5086 21.375H15V26.0625C15.0006 26.6425 15.2313 27.1985 15.6414 27.6086C16.0515 28.0187 16.6075 28.2494 17.1875 28.25H28.4914L34.5578 34.3172C34.6452 34.4047 34.7566 34.4643 34.8779 34.4885C34.9992 34.5126 35.125 34.5002 35.2392 34.4529C35.3535 34.4055 35.4512 34.3254 35.5198 34.2225C35.5885 34.1196 35.6251 33.9987 35.625 33.875V28.25H36.5625C37.1425 28.2494 37.6985 28.0187 38.1086 27.6086C38.5187 27.1985 38.7494 26.6425 38.75 26.0625V9.1875C38.7494 8.60754 38.5187 8.05151 38.1086 7.64141C37.6985 7.23131 37.1425 7.00064 36.5625 7ZM11.25 20.125C11.0842 20.1249 10.9252 20.1907 10.8078 20.3078L5.625 25.4914V20.75C5.625 20.5842 5.55915 20.4253 5.44194 20.3081C5.32473 20.1908 5.16576 20.125 5 20.125H2.8125C2.56392 20.1248 2.32559 20.026 2.14982 19.8502C1.97405 19.6744 1.87521 19.4361 1.875 19.1875V2.3125C1.87521 2.06392 1.97405 1.82559 2.14982 1.64982C2.32559 1.47405 2.56392 1.37521 2.8125 1.375H30.9375C31.1861 1.37521 31.4244 1.47405 31.6002 1.64982C31.776 1.82559 31.8748 2.06392 31.875 2.3125V19.1875C31.8748 19.4361 31.776 19.6744 31.6002 19.8502C31.4244 20.026 31.1861 20.1248 30.9375 20.125H11.25ZM37.5 26.0625C37.4998 26.3111 37.401 26.5494 37.2252 26.7252C37.0494 26.901 36.8111 26.9998 36.5625 27H35C34.8342 27 34.6753 27.0658 34.5581 27.1831C34.4408 27.3003 34.375 27.4592 34.375 27.625V32.3664L29.1922 27.1828C29.0748 27.0657 28.9158 26.9999 28.75 27H17.1875C16.9389 26.9998 16.7006 26.901 16.5248 26.7252C16.349 26.5494 16.2502 26.3111 16.25 26.0625V21.375H30.9375C31.5175 21.3744 32.0735 21.1437 32.4836 20.7336C32.8937 20.3235 33.1244 19.7675 33.125 19.1875V8.25H36.5625C36.8111 8.25021 37.0494 8.34904 37.2252 8.52482C37.401 8.70059 37.4998 8.93892 37.5 9.1875V26.0625Z" fill="#4F89D4"/>
<path d="M3.75 8.875H30C30.1658 8.875 30.3247 8.80915 30.4419 8.69194C30.5592 8.57473 30.625 8.41576 30.625 8.25C30.625 8.08424 30.5592 7.92527 30.4419 7.80806C30.3247 7.69085 30.1658 7.625 30 7.625H3.75C3.58424 7.625 3.42527 7.69085 3.30806 7.80806C3.19085 7.92527 3.125 8.08424 3.125 8.25C3.125 8.41576 3.19085 8.57473 3.30806 8.69194C3.42527 8.80915 3.58424 8.875 3.75 8.875Z" fill="#4F89D4"/>
<path d="M3.75 6.375H30C30.1658 6.375 30.3247 6.30915 30.4419 6.19194C30.5592 6.07473 30.625 5.91576 30.625 5.75C30.625 5.58424 30.5592 5.42527 30.4419 5.30806C30.3247 5.19085 30.1658 5.125 30 5.125H3.75C3.58424 5.125 3.42527 5.19085 3.30806 5.30806C3.19085 5.42527 3.125 5.58424 3.125 5.75C3.125 5.91576 3.19085 6.07473 3.30806 6.19194C3.42527 6.30915 3.58424 6.375 3.75 6.375Z" fill="#4F89D4"/>
<path d="M3.75 11.375H30C30.1658 11.375 30.3247 11.3092 30.4419 11.1919C30.5592 11.0747 30.625 10.9158 30.625 10.75C30.625 10.5842 30.5592 10.4253 30.4419 10.3081C30.3247 10.1908 30.1658 10.125 30 10.125H3.75C3.58424 10.125 3.42527 10.1908 3.30806 10.3081C3.19085 10.4253 3.125 10.5842 3.125 10.75C3.125 10.9158 3.19085 11.0747 3.30806 11.1919C3.42527 11.3092 3.58424 11.375 3.75 11.375Z" fill="#4F89D4"/>
<path d="M3.75 13.875H30C30.1658 13.875 30.3247 13.8092 30.4419 13.6919C30.5592 13.5747 30.625 13.4158 30.625 13.25C30.625 13.0842 30.5592 12.9253 30.4419 12.8081C30.3247 12.6908 30.1658 12.625 30 12.625H3.75C3.58424 12.625 3.42527 12.6908 3.30806 12.8081C3.19085 12.9253 3.125 13.0842 3.125 13.25C3.125 13.4158 3.19085 13.5747 3.30806 13.6919C3.42527 13.8092 3.58424 13.875 3.75 13.875Z" fill="#4F89D4"/>
<path d="M18.0469 15.75C18.0469 15.5842 17.981 15.4253 17.8638 15.3081C17.7466 15.1908 17.5876 15.125 17.4219 15.125H3.75C3.58424 15.125 3.42527 15.1908 3.30806 15.3081C3.19085 15.4253 3.125 15.5842 3.125 15.75C3.125 15.9158 3.19085 16.0747 3.30806 16.1919C3.42527 16.3092 3.58424 16.375 3.75 16.375H17.4219C17.5876 16.375 17.7466 16.3092 17.8638 16.1919C17.981 16.0747 18.0469 15.9158 18.0469 15.75Z" fill="#4F89D4"/>
</svg>
