<svg width="40" height="30" viewBox="0 0 40 30" fill="none" xmlns="http://www.w3.org/2000/svg">
<path d="M20.001 12.5C19.5065 12.5 19.0232 12.6466 18.6121 12.9213C18.2009 13.196 17.8805 13.5865 17.6913 14.0433C17.5021 14.5001 17.4526 15.0028 17.549 15.4877C17.6455 15.9727 17.8836 16.4181 18.2332 16.7678C18.5828 17.1174 19.0283 17.3555 19.5133 17.452C19.9982 17.5484 20.5009 17.4989 20.9577 17.3097C21.4145 17.1205 21.8049 16.8001 22.0797 16.3889C22.3544 15.9778 22.501 15.4945 22.501 15C22.5002 14.3372 22.2366 13.7017 21.7679 13.2331C21.2992 12.7644 20.6638 12.5007 20.001 12.5ZM20.001 16.25C19.7538 16.25 19.5121 16.1767 19.3065 16.0393C19.101 15.902 18.9407 15.7068 18.8461 15.4784C18.7515 15.2499 18.7268 14.9986 18.775 14.7561C18.8232 14.5137 18.9423 14.2909 19.1171 14.1161C19.2919 13.9413 19.5146 13.8223 19.7571 13.774C19.9996 13.7258 20.2509 13.7505 20.4793 13.8452C20.7077 13.9398 20.903 14.1 21.0403 14.3055C21.1777 14.5111 21.251 14.7528 21.251 15C21.2506 15.3314 21.1188 15.6491 20.8844 15.8835C20.6501 16.1178 20.3324 16.2496 20.001 16.25Z" fill="#4F89D4"/>
<path d="M39.376 15C39.376 13.3312 37.3166 11.8992 33.4205 10.8601C32.8822 10.7172 32.3189 10.5838 31.7307 10.4601C32.0986 9.87263 32.4361 9.29607 32.7385 8.73357C34.6611 5.16326 34.9939 2.59295 33.701 1.29998C32.408 0.00700986 29.8377 0.339822 26.2674 2.26248C24.3018 3.32029 22.1643 4.79295 20.001 6.5656C17.8377 4.79295 15.7002 3.32029 13.7346 2.26248C10.1643 0.339822 7.59395 0.00700986 6.30098 1.29998C5.00801 2.59295 5.34082 5.16326 7.26348 8.73357C7.56582 9.29607 7.90332 9.87263 8.27129 10.4601C7.68379 10.5836 7.12051 10.7169 6.58145 10.8601C2.68535 11.8992 0.625977 13.3312 0.625977 15C0.625977 16.6687 2.68535 18.1008 6.58145 19.1398C7.11973 19.2828 7.68301 19.4161 8.27129 19.5398C7.90332 20.1273 7.56582 20.7039 7.26348 21.2664C5.34082 24.8367 5.00801 27.407 6.30098 28.7C6.81738 29.2164 7.5377 29.4734 8.44395 29.4734C9.80645 29.4734 11.59 28.8922 13.7346 27.7375C15.7002 26.6797 17.8377 25.207 20.001 23.4343C22.1643 25.207 24.3018 26.6797 26.2674 27.7375C28.4119 28.8929 30.1955 29.4734 31.558 29.4734C32.4643 29.4734 33.1846 29.2164 33.701 28.7C34.9939 27.407 34.6611 24.8367 32.7385 21.2664C32.4361 20.7039 32.0986 20.1273 31.7307 19.5398C32.3182 19.4164 32.8814 19.283 33.4205 19.1398C37.3166 18.1008 39.376 16.6687 39.376 15ZM26.8596 3.36248C28.7994 2.31795 30.4369 1.77498 31.5572 1.77498C32.1143 1.77498 32.5432 1.90935 32.8174 2.18357C33.6432 3.00935 33.2025 5.2367 31.6385 8.14138C31.2783 8.81013 30.8692 9.49815 30.4111 10.2054C28.0456 9.80267 25.657 9.55008 23.2596 9.4492C22.5018 8.72888 21.7406 8.04034 20.976 7.38357C23.0119 5.72966 25.0166 4.35545 26.8596 3.36248ZM15.3854 19.2219C13.6096 19.1015 11.9182 18.9109 10.3564 18.657C10.9713 17.7765 11.6502 16.8789 12.3846 15.975C13.3182 17.0625 14.3236 18.1508 15.3854 19.2219ZM10.3564 11.3429C11.9182 11.089 13.6096 10.8984 15.3854 10.7781C14.3236 11.8492 13.3182 12.9375 12.3846 14.025C11.6502 13.1211 10.9713 12.2234 10.3564 11.3429ZM13.1955 15C14.2041 13.8172 15.3002 12.6304 16.4658 11.4648C16.7314 11.1984 16.9984 10.9362 17.2666 10.6781C18.1635 10.6429 19.0768 10.625 20.001 10.625C20.9252 10.625 21.8385 10.6429 22.7354 10.6781C23.0033 10.9367 23.2702 11.1989 23.5361 11.4648C24.7018 12.6304 25.7978 13.8172 26.8064 15C25.7978 16.1828 24.7018 17.3695 23.5361 18.5351C23.2705 18.8015 23.0036 19.0638 22.7354 19.3218C21.8385 19.357 20.9252 19.375 20.001 19.375C19.0768 19.375 18.1635 19.357 17.2666 19.3218C16.9986 19.0633 16.7317 18.801 16.4658 18.5351C15.3002 17.3695 14.2041 16.1828 13.1955 15ZM27.6174 15.975C28.3518 16.8789 29.0307 17.7765 29.6455 18.657C28.0838 18.9109 26.3924 19.1015 24.6166 19.2219C25.6783 18.1508 26.6838 17.0625 27.6174 15.975ZM24.6166 10.7781C26.3924 10.8984 28.0838 11.089 29.6455 11.3429C29.0307 12.2234 28.3518 13.1211 27.6174 14.025C26.6838 12.9375 25.6783 11.8492 24.6166 10.7781ZM21.3572 9.38748C20.908 9.37966 20.4559 9.3755 20.001 9.37498C19.546 9.37446 19.0939 9.37862 18.6447 9.38748C19.0963 8.9781 19.5484 8.58045 20.001 8.19451C20.4533 8.57966 20.9054 8.97732 21.3572 9.38748ZM7.18457 2.18357C7.45879 1.90935 7.8877 1.77498 8.44473 1.77498C9.56504 1.77498 11.2025 2.31873 13.1424 3.36248C14.9854 4.35545 16.99 5.72966 19.026 7.38357C18.2635 8.03904 17.5023 8.72758 16.7424 9.4492C14.345 9.55008 11.9563 9.80267 9.59082 10.2054C9.13457 9.49998 8.72546 8.81196 8.36348 8.14138C6.79941 5.2367 6.35879 3.00935 7.18457 2.18357ZM6.9041 17.932C3.19707 16.9429 1.87598 15.7687 1.87598 15C1.87598 14.2312 3.19707 13.057 6.9041 12.0679C7.56504 11.8922 8.26738 11.7312 9.00566 11.5851C9.7627 12.7015 10.6221 13.8469 11.5666 15C10.6221 16.1531 9.7627 17.2984 9.00566 18.4148C8.26738 18.2687 7.56504 18.1078 6.9041 17.932ZM13.1424 26.6375C10.2377 28.2015 8.01035 28.6422 7.18457 27.8164C6.35879 26.9906 6.79941 24.7633 8.36348 21.8586C8.72363 21.1898 9.13275 20.5018 9.59082 19.7945C11.9563 20.1973 14.345 20.4499 16.7424 20.5508C17.5002 21.2711 18.2614 21.9596 19.026 22.6164C16.99 24.2703 14.9854 25.6445 13.1424 26.6375ZM18.6447 20.6125C19.0939 20.6203 19.546 20.6245 20.001 20.625C20.4559 20.6255 20.908 20.6213 21.3572 20.6125C20.9057 21.0218 20.4536 21.4195 20.001 21.8054C19.5486 21.4203 19.0965 21.0226 18.6447 20.6125ZM32.8174 27.8164C31.9916 28.6422 29.7643 28.2015 26.8596 26.6375C25.0166 25.6445 23.0119 24.2703 20.976 22.6164C21.7385 21.9609 22.4997 21.2724 23.2596 20.5508C25.657 20.4499 28.0456 20.1973 30.4111 19.7945C30.8674 20.5 31.2765 21.188 31.6385 21.8586C33.2025 24.7633 33.6432 26.9906 32.8174 27.8164ZM30.9963 18.4148C30.2393 17.2984 29.3799 16.1531 28.4354 15C29.3799 13.8469 30.2393 12.7015 30.9963 11.5851C31.7346 11.7312 32.4369 11.8922 33.0979 12.0679C36.8049 13.057 38.126 14.2312 38.126 15C38.126 15.7687 36.8049 16.9429 33.0979 17.932C32.4369 18.1078 31.7346 18.2687 30.9963 18.4148Z" fill="#4F89D4"/>
</svg>
