<svg width="40" height="32" viewBox="0 0 40 32" fill="none" xmlns="http://www.w3.org/2000/svg">
<path d="M38.7516 22.92L38.7518 24.17C38.7518 24.6672 38.5544 25.1441 38.2028 25.4958C37.8513 25.8475 37.3745 26.0452 36.8773 26.0454L3.12726 26.053C2.63002 26.053 2.15313 25.8556 1.80145 25.504C1.44977 25.1525 1.25208 24.6757 1.25184 24.1785L1.25156 22.9285L38.7516 22.92Z" fill="#C1D9F9"/>
<path d="M13.7492 12.3007L16.8746 14.175L16.8754 17.925L13.7509 19.8007L10.6254 17.9264L10.6246 14.1764L13.7492 12.3007Z" fill="#C1D9F9"/>
<path d="M20.6237 10.4241L17.4992 12.2998L14.3737 10.4255L14.3729 6.67554L17.4975 4.79983L20.6229 6.67412L20.6237 10.4241Z" fill="#C1D9F9"/>
<path d="M21.8742 12.2989L24.9996 14.1731L25.0004 17.9231L21.8759 19.7989L18.7504 17.9246L18.7496 14.1746L21.8742 12.2989Z" fill="#C1D9F9"/>
<path d="M28.7479 6.67229L28.7487 10.4223L25.6242 12.298L22.4987 10.4237L22.4979 6.67371L25.6225 4.798L28.7479 6.67229Z" fill="#C1D9F9"/>
<path d="M12.503 29.1759L27.503 29.1725L27.5034 31.0475L12.5034 31.0509L12.503 29.1759Z" fill="#C1D9F9"/>
<path d="M16.8746 14.175L16.8754 17.925L13.7509 19.8007L10.6254 17.9264L10.6246 14.1764L13.7492 12.3007L16.8746 14.175Z" fill="#4F89D4"/>
<path d="M20.6229 6.67412L20.6237 10.4241L17.4992 12.2998L14.3737 10.4255L14.3729 6.67554L17.4975 4.79983L20.6229 6.67412Z" fill="#4F89D4"/>
<path d="M24.9996 14.1731L25.0004 17.9231L21.8759 19.7989L18.7504 17.9246L18.7496 14.1746L21.8742 12.2989L24.9996 14.1731Z" fill="#4F89D4"/>
<path d="M28.7479 6.67229L28.7487 10.4223L25.6242 12.298L22.4987 10.4237L22.4979 6.67371L25.6225 4.798L28.7479 6.67229Z" fill="#4F89D4"/>
<path d="M36.8715 0.420398L3.12148 0.428024C2.45866 0.428918 1.82327 0.692693 1.3547 1.16148C0.886122 1.63026 0.622635 2.26578 0.62204 2.92859L0.626842 24.1786C0.627736 24.8414 0.891511 25.4768 1.3603 25.9454C1.82908 26.4139 2.46459 26.6774 3.12741 26.678L15.329 26.6753L14.5794 28.5504L12.5028 28.5509C12.3371 28.5509 12.1781 28.6168 12.0609 28.7341C11.9437 28.8513 11.8779 29.0103 11.878 29.176L11.8783 30.426L6.87825 30.4272C6.71249 30.4272 6.55354 30.4931 6.43635 30.6103C6.31917 30.7276 6.25336 30.8866 6.2534 31.0523C6.25343 31.2181 6.31932 31.377 6.43655 31.4942C6.55379 31.6114 6.71278 31.6772 6.87854 31.6772L33.1285 31.6712C33.2943 31.6712 33.4533 31.6053 33.5704 31.4881C33.6876 31.3709 33.7534 31.2119 33.7534 31.0461C33.7534 30.8803 33.6875 30.7214 33.5702 30.6042C33.453 30.487 33.294 30.4212 33.1283 30.4212L28.1283 30.4224L28.128 29.1724C28.1279 29.0066 28.0621 28.8477 27.9448 28.7305C27.8276 28.6133 27.6686 28.5475 27.5028 28.5475L25.4263 28.548L24.6758 26.6732L36.8774 26.6704C37.5402 26.6695 38.1756 26.4057 38.6442 25.9369C39.1128 25.4682 39.3762 24.8326 39.3768 24.1698L39.372 2.91983C39.3711 2.25702 39.1074 1.62163 38.6386 1.15305C38.1698 0.68448 37.5343 0.420993 36.8715 0.420398ZM26.8781 29.7977L26.8783 30.4227L13.1283 30.4258L13.1281 29.8008L26.8781 29.7977ZM15.9263 28.5501L16.6758 26.675L23.329 26.6735L24.0794 28.5483L15.9263 28.5501ZM38.1268 24.1701C38.1265 24.5015 37.9947 24.8192 37.7604 25.0536C37.5262 25.288 37.2085 25.4199 36.8771 25.4204L3.12712 25.428C2.79574 25.4277 2.47802 25.2959 2.24364 25.0616C2.00926 24.8274 1.87735 24.5097 1.87684 24.1783L1.8767 23.5533L38.1267 23.5451L38.1268 24.1701ZM38.1264 22.2951L1.87642 22.3033L1.87204 2.92831C1.8724 2.59692 2.00416 2.2792 2.23844 2.04482C2.47271 1.81044 2.79037 1.67853 3.12176 1.67802L36.8718 1.6704C37.2031 1.67076 37.5209 1.80252 37.7552 2.03679C37.9896 2.27107 38.1215 2.58873 38.122 2.92012L38.1264 22.2951Z" fill="#4F89D4"/>
<path d="M5.37263 5.55247L9.74763 5.55148C9.91339 5.55145 10.0723 5.48556 10.1895 5.36832C10.3067 5.25109 10.3725 5.0921 10.3725 4.92634C10.3724 4.76058 10.3066 4.60162 10.1893 4.48444C10.0721 4.36726 9.91311 4.30145 9.74734 4.30148L5.37234 4.30247C5.20658 4.30251 5.04763 4.36839 4.93044 4.48563C4.81326 4.60287 4.74745 4.76185 4.74749 4.92761C4.74752 5.09337 4.81341 5.25233 4.93064 5.36951C5.04788 5.4867 5.20687 5.55251 5.37263 5.55247Z" fill="#4F89D4"/>
<path d="M5.37305 7.42747L9.74805 7.42648C9.91382 7.42645 10.0728 7.36056 10.19 7.24332C10.3071 7.12609 10.373 6.9671 10.3729 6.80134C10.3729 6.63558 10.307 6.47662 10.1898 6.35944C10.0725 6.24226 9.91353 6.17645 9.74777 6.17648L5.37277 6.17747C5.20701 6.17751 5.04806 6.24339 4.93087 6.36063C4.81369 6.47787 4.74788 6.63685 4.74791 6.80261C4.74795 6.96837 4.81383 7.12733 4.93107 7.24451C5.04831 7.3617 5.20729 7.42751 5.37305 7.42747Z" fill="#4F89D4"/>
<path d="M5.37348 9.30247L9.74848 9.30148C9.91424 9.30145 10.0732 9.23556 10.1904 9.11832C10.3076 9.00109 10.3734 8.8421 10.3733 8.67634C10.3733 8.51058 10.3074 8.35162 10.1902 8.23444C10.0729 8.11726 9.91396 8.05145 9.7482 8.05148L5.3732 8.05247C5.20744 8.05251 5.04848 8.11839 4.9313 8.23563C4.81412 8.35287 4.7483 8.51185 4.74834 8.67761C4.74838 8.84337 4.81426 9.00233 4.9315 9.11951C5.04874 9.2367 5.20772 9.30251 5.37348 9.30247Z" fill="#4F89D4"/>
<path d="M30.25 15.9219L34.625 15.9209C34.7907 15.9208 34.9497 15.8549 35.0669 15.7377C35.1841 15.6205 35.2499 15.4615 35.2498 15.2957C35.2498 15.13 35.1839 14.971 35.0667 14.8538C34.9494 14.7366 34.7905 14.6708 34.6247 14.6709L30.2497 14.6719C30.0839 14.6719 29.925 14.7378 29.8078 14.855C29.6906 14.9723 29.6248 15.1312 29.6248 15.297C29.6249 15.4628 29.6908 15.6217 29.808 15.7389C29.9252 15.8561 30.0842 15.9219 30.25 15.9219Z" fill="#4F89D4"/>
<path d="M30.2504 17.7969L34.6254 17.7959C34.7912 17.7958 34.9501 17.7299 35.0673 17.6127C35.1845 17.4955 35.2503 17.3365 35.2503 17.1707C35.2502 17.005 35.1843 16.846 35.0671 16.7288C34.9499 16.6116 34.7909 16.5458 34.6251 16.5459L30.2501 16.5469C30.0844 16.5469 29.9254 16.6128 29.8082 16.73C29.691 16.8473 29.6252 17.0062 29.6253 17.172C29.6253 17.3378 29.6912 17.4967 29.8084 17.6139C29.9257 17.7311 30.0846 17.7969 30.2504 17.7969Z" fill="#4F89D4"/>
<path d="M30.2508 19.6719L32.1258 19.6714C32.2916 19.6714 32.4505 19.6055 32.5677 19.4883C32.6849 19.371 32.7507 19.2121 32.7507 19.0463C32.7507 18.8805 32.6848 18.7216 32.5675 18.6044C32.4503 18.4872 32.2913 18.4214 32.1255 18.4214L30.2505 18.4219C30.0848 18.4219 29.9258 18.4878 29.8086 18.605C29.6915 18.7223 29.6257 18.8812 29.6257 19.047C29.6257 19.2128 29.6916 19.3717 29.8088 19.4889C29.9261 19.6061 30.0851 19.6719 30.2508 19.6719Z" fill="#4F89D4"/>
</svg>
