<svg width="40" height="40" viewBox="0 0 40 40" fill="none" xmlns="http://www.w3.org/2000/svg">
<path d="M11.25 11.25H18.75V13.75H11.25V11.25Z" fill="#C1D9F9"/>
<path d="M11.875 6.25H20.625V8.125H11.875V6.25Z" fill="#C1D9F9"/>
<path d="M18.75 11.25V11.9813C18.2664 11.893 18.0695 11.7188 17.2914 11.7188C16.9379 11.7113 16.5857 11.7641 16.25 11.875C15.914 11.9858 15.5616 12.0386 15.2078 12.0313C14.3336 12.0313 14.193 11.8109 13.5539 11.7398C13.4114 11.725 13.2682 11.718 13.125 11.7188V11.25H18.75Z" fill="#C1D9F9"/>
<path d="M19.375 12.0312V21.25C19.375 22.0788 19.0458 22.8736 18.4597 23.4597C17.8737 24.0457 17.0788 24.375 16.25 24.375C15.4212 24.375 14.6263 24.0457 14.0403 23.4597C13.4542 22.8736 13.125 22.0788 13.125 21.25V11.7187L13.5539 11.7398C14.193 11.8109 14.3336 12.0312 15.2078 12.0312C15.5616 12.0386 15.914 11.9857 16.25 11.875C16.5857 11.7641 16.9379 11.7113 17.2914 11.7187C18.0695 11.7187 18.2664 11.8929 18.75 11.9812C18.8102 11.9929 18.875 12.0023 18.9461 12.0101C19.0886 12.0249 19.2318 12.032 19.375 12.0312Z" fill="#C1D9F9"/>
<path d="M13.125 11.7188C13.2682 11.718 13.4114 11.7251 13.5539 11.7399L13.125 11.7188Z" fill="#C1D9F9"/>
<path d="M19.375 12.0312C19.2317 12.032 19.0886 12.0249 18.9461 12.0101L19.375 12.0312Z" fill="#C1D9F9"/>
<path d="M24.375 11.875H33.125V13.75H24.375V11.875Z" fill="#C1D9F9"/>
<path d="M11.25 10.625H13.125V14.375H11.25V10.625Z" fill="#C1D9F9"/>
<path d="M19.375 10.625H21.25V14.375H19.375V10.625Z" fill="#C1D9F9"/>
<path d="M13.5539 11.7399L13.125 11.7188C13.2682 11.718 13.4114 11.7251 13.5539 11.7399Z" fill="#C1D9F9"/>
<path d="M19.375 12.0312C19.2317 12.032 19.0886 12.0249 18.9461 12.0101L19.375 12.0312Z" fill="#C1D9F9"/>
<path d="M26.0539 21.1149L25.625 21.0938C25.7682 21.093 25.9114 21.1001 26.0539 21.1149Z" fill="#C1D9F9"/>
<path d="M31.875 21.4062C31.7317 21.407 31.5886 21.3999 31.4461 21.3851L31.875 21.4062Z" fill="#C1D9F9"/>
<path d="M33.6852 33.125H23.8148C23.4953 33.1249 23.1811 33.0431 22.9021 32.8874C22.623 32.7318 22.3884 32.5074 22.2204 32.2356C22.0524 31.9637 21.9567 31.6535 21.9424 31.3343C21.928 31.0151 21.9954 30.6975 22.1383 30.4117L25.625 23.125V21.0937L26.0539 21.1148C26.693 21.1859 26.8336 21.4062 27.7078 21.4062C28.0616 21.4136 28.414 21.3607 28.75 21.25C29.0857 21.1391 29.4379 21.0863 29.7914 21.0937C30.6664 21.0937 30.807 21.314 31.4461 21.3851C31.5886 21.3999 31.7318 21.407 31.875 21.4062V23.125L35.3617 30.4117C35.5046 30.6975 35.572 31.0151 35.5577 31.3343C35.5433 31.6535 35.4476 31.9637 35.2796 32.2356C35.1117 32.5074 34.877 32.7318 34.598 32.8874C34.3189 33.0431 34.0047 33.1249 33.6852 33.125Z" fill="#C1D9F9"/>
<path d="M26.0539 21.1149L25.625 21.0938C25.7682 21.093 25.9114 21.1001 26.0539 21.1149Z" fill="#C1D9F9"/>
<path d="M31.875 21.4062C31.7317 21.407 31.5886 21.3999 31.4461 21.3851L31.875 21.4062Z" fill="#C1D9F9"/>
<path d="M38.75 33.125V38.75H26.25L25 36.25H15L13.75 38.75H1.25V33.125H38.75Z" fill="#C1D9F9"/>
<path d="M3.75 10H8.75V15H3.75V10Z" fill="#C1D9F9"/>
<path d="M3.75 31.25H8.75V33.125H3.75V31.25Z" fill="#C1D9F9"/>
<path d="M3.75 1.25H8.75V3.125H3.75V1.25Z" fill="#C1D9F9"/>
<path d="M38.75 32.5H35.8484C36.0565 32.1435 36.1723 31.7408 36.1854 31.3283C36.1985 30.9157 36.1084 30.5065 35.9234 30.1375L32.5 22.9828V14.375H33.125C33.2908 14.375 33.4497 14.3092 33.5669 14.1919C33.6842 14.0747 33.75 13.9158 33.75 13.75V11.875C33.75 11.7092 33.6842 11.5503 33.5669 11.4331C33.4497 11.3158 33.2908 11.25 33.125 11.25H24.375C24.2092 11.25 24.0503 11.3158 23.9331 11.4331C23.8158 11.5503 23.75 11.7092 23.75 11.875V13.75C23.75 13.9158 23.8158 14.0747 23.9331 14.1919C24.0503 14.3092 24.2092 14.375 24.375 14.375H25V22.9828L21.5766 30.1375C21.3916 30.5065 21.3015 30.9157 21.3146 31.3283C21.3277 31.7408 21.4435 32.1435 21.6516 32.5H9.375V31.25C9.375 31.0842 9.30915 30.9253 9.19194 30.8081C9.07473 30.6908 8.91576 30.625 8.75 30.625H8.125V15.625H8.75C8.91576 15.625 9.07473 15.5592 9.19194 15.4419C9.30915 15.3247 9.375 15.1658 9.375 15V14.375H10.625C10.625 14.5408 10.6908 14.6997 10.8081 14.8169C10.9253 14.9342 11.0842 15 11.25 15H12.5V21.25C12.5 22.2446 12.8951 23.1984 13.5983 23.9017C14.3016 24.6049 15.2554 25 16.25 25C17.2446 25 18.1984 24.6049 18.9017 23.9017C19.6049 23.1984 20 22.2446 20 21.25V15H21.25C21.4158 15 21.5747 14.9342 21.6919 14.8169C21.8092 14.6997 21.875 14.5408 21.875 14.375V10.625C21.875 10.4592 21.8092 10.3003 21.6919 10.1831C21.5747 10.0658 21.4158 10 21.25 10H20V8.75H20.625C20.7908 8.75 20.9497 8.68415 21.0669 8.56694C21.1842 8.44973 21.25 8.29076 21.25 8.125V6.25C21.25 6.08424 21.1842 5.92527 21.0669 5.80806C20.9497 5.69085 20.7908 5.625 20.625 5.625H11.875C11.7092 5.625 11.5503 5.69085 11.4331 5.80806C11.3158 5.92527 11.25 6.08424 11.25 6.25V8.125C11.25 8.29076 11.3158 8.44973 11.4331 8.56694C11.5503 8.68415 11.7092 8.75 11.875 8.75H12.5V10H11.25C11.0842 10 10.9253 10.0658 10.8081 10.1831C10.6908 10.3003 10.625 10.4592 10.625 10.625H9.375V10C9.375 9.83424 9.30915 9.67527 9.19194 9.55806C9.07473 9.44085 8.91576 9.375 8.75 9.375H8.125V3.75H8.75C8.91576 3.75 9.07473 3.68415 9.19194 3.56694C9.30915 3.44973 9.375 3.29076 9.375 3.125V1.25C9.375 1.08424 9.30915 0.925268 9.19194 0.808058C9.07473 0.690848 8.91576 0.625 8.75 0.625H3.75C3.58424 0.625 3.42527 0.690848 3.30806 0.808058C3.19085 0.925268 3.125 1.08424 3.125 1.25V3.125C3.125 3.29076 3.19085 3.44973 3.30806 3.56694C3.42527 3.68415 3.58424 3.75 3.75 3.75H4.375V9.375H3.75C3.58424 9.375 3.42527 9.44085 3.30806 9.55806C3.19085 9.67527 3.125 9.83424 3.125 10V15C3.125 15.1658 3.19085 15.3247 3.30806 15.4419C3.42527 15.5592 3.58424 15.625 3.75 15.625H4.375V30.625H3.75C3.58424 30.625 3.42527 30.6908 3.30806 30.8081C3.19085 30.9253 3.125 31.0842 3.125 31.25V32.5H1.25C1.08424 32.5 0.925268 32.5658 0.808058 32.6831C0.690848 32.8003 0.625 32.9592 0.625 33.125V38.75C0.625 38.9158 0.690848 39.0747 0.808058 39.1919C0.925268 39.3092 1.08424 39.375 1.25 39.375H13.75C13.8661 39.375 13.9799 39.3427 14.0787 39.2817C14.1775 39.2207 14.2573 39.1335 14.3094 39.0297L15.3859 36.875H24.6141L25.6906 39.0297C25.7427 39.1335 25.8225 39.2207 25.9213 39.2817C26.0201 39.3427 26.1339 39.375 26.25 39.375H38.75C38.9158 39.375 39.0747 39.3092 39.1919 39.1919C39.3092 39.0747 39.375 38.9158 39.375 38.75V33.125C39.375 32.9592 39.3092 32.8003 39.1919 32.6831C39.0747 32.5658 38.9158 32.5 38.75 32.5ZM18.75 21.25C18.75 21.913 18.4866 22.5489 18.0178 23.0178C17.5489 23.4866 16.913 23.75 16.25 23.75C15.587 23.75 14.9511 23.4866 14.4822 23.0178C14.0134 22.5489 13.75 21.913 13.75 21.25V12.4078C13.8305 12.4266 13.9062 12.4492 13.9867 12.4734C14.7828 12.7172 15.6336 12.7172 16.4297 12.4734C16.9914 12.3005 17.5922 12.3005 18.1539 12.4734C18.3486 12.5361 18.5479 12.5833 18.75 12.6148V21.25ZM18.75 11.3422C18.6695 11.3234 18.5938 11.3008 18.5125 11.2766C17.7167 11.0328 16.8661 11.0328 16.0703 11.2766C15.5086 11.4495 14.9078 11.4495 14.3461 11.2766C14.1514 11.2139 13.9521 11.1667 13.75 11.1352V8.75H18.75V11.3422ZM20.625 11.25V13.75H20V11.25H20.625ZM12.5 6.875H20V7.5H12.5V6.875ZM11.875 11.25H12.5V13.75H11.875V11.25ZM9.375 11.875H10.625V13.125H9.375V11.875ZM25 12.5H32.5V13.125H25V12.5ZM31.25 14.375V20.7172C31.1695 20.6984 31.0938 20.6758 31.0125 20.6516C30.2167 20.4078 29.3661 20.4078 28.5703 20.6516C28.0086 20.8245 27.4078 20.8245 26.8461 20.6516C26.6514 20.5889 26.4521 20.5417 26.25 20.5102V14.375H31.25ZM22.6969 30.6914C22.6992 30.6883 22.701 30.6849 22.7023 30.6812L26.1891 23.3945C26.2292 23.3103 26.25 23.2183 26.25 23.125V21.7828C26.3305 21.8016 26.4062 21.8242 26.4867 21.8484C27.2828 22.0922 28.1336 22.0922 28.9297 21.8484C29.4914 21.6755 30.0922 21.6755 30.6539 21.8484C30.8486 21.9111 31.0479 21.9583 31.25 21.9898V23.125C31.25 23.2183 31.2708 23.3103 31.3109 23.3945L34.7977 30.6812C34.799 30.6849 34.8008 30.6883 34.8031 30.6914C34.8983 30.882 34.9432 31.0937 34.9336 31.3065C34.924 31.5193 34.8601 31.7261 34.7481 31.9072C34.6361 32.0884 34.4797 32.238 34.2937 32.3417C34.1076 32.4455 33.8982 32.5 33.6852 32.5H23.8148C23.6018 32.5 23.3924 32.4455 23.2063 32.3417C23.0203 32.238 22.8639 32.0884 22.7519 31.9072C22.6399 31.7261 22.576 31.5193 22.5664 31.3065C22.5568 31.0937 22.6017 30.882 22.6969 30.6914ZM4.375 1.875H8.125V2.5H4.375V1.875ZM6.875 3.75V9.375H5.625V3.75H6.875ZM4.375 10.625H8.125V14.375H4.375V10.625ZM6.875 15.625V30.625H5.625V15.625H6.875ZM4.375 31.875H8.125V32.5H4.375V31.875ZM38.125 38.125H26.6359L25.5594 35.9703C25.5073 35.8665 25.4275 35.7793 25.3287 35.7183C25.2299 35.6573 25.1161 35.625 25 35.625H15C14.8839 35.625 14.7701 35.6573 14.6713 35.7183C14.5725 35.7793 14.4927 35.8665 14.4406 35.9703L13.3641 38.125H1.875V33.75H38.125V38.125Z" fill="#4F89D4"/>
</svg>
