<svg width="41" height="53" viewBox="0 0 41 53" fill="none" xmlns="http://www.w3.org/2000/svg">
<path d="M41.0006 32.0378C41.0006 43.1317 32.0072 52.125 20.9134 52.125C9.81952 52.125 0.826172 43.1317 0.826172 32.0378C0.826172 20.944 12.6496 8.39085 20.9134 0C27.1429 6.10244 41.0006 20.944 41.0006 32.0378Z" fill="#4F89D4"/>
<path d="M18.0446 28.6625H15.4926C15.5806 27.1225 16.1086 25.9492 17.0766 25.1425C18.0446 24.3212 19.3133 23.9105 20.8826 23.9105C22.4226 23.9105 23.6693 24.3359 24.6226 25.1865C25.5759 26.0225 26.0526 27.2032 26.0526 28.7285C26.0526 30.5472 25.0113 32.2925 22.9286 33.9645L19.3646 36.8465V37.3745H26.4926V39.6185H15.5146V36.8685L21.0366 32.5125C22.6646 31.2219 23.4786 29.9679 23.4786 28.7505C23.4786 27.9292 23.2366 27.2985 22.7526 26.8585C22.2833 26.4185 21.6379 26.1985 20.8166 26.1985C20.0393 26.1985 19.4013 26.4039 18.9026 26.8145C18.4186 27.2252 18.1326 27.8412 18.0446 28.6625Z" fill="white"/>
</svg>
