<svg width="41" height="53" viewBox="0 0 41 53" fill="none" xmlns="http://www.w3.org/2000/svg">
<path d="M41.0006 32.7878C41.0006 43.8817 32.0072 52.875 20.9134 52.875C9.81952 52.875 0.826172 43.8817 0.826172 32.7878C0.826172 21.694 12.6496 9.14085 20.9134 0.75C27.1429 6.85244 41.0006 21.694 41.0006 32.7878Z" fill="#4F89D4"/>
<path d="M16.1285 24.9685H25.5885V27.6745L22.2445 30.3805V30.9305C23.4472 30.9892 24.4299 31.4219 25.1925 32.2285C25.9699 33.0205 26.3585 34.1059 26.3585 35.4845C26.3585 37.0832 25.8305 38.3445 24.7745 39.2685C23.7332 40.1925 22.3765 40.6545 20.7045 40.6545C19.0765 40.6545 17.7419 40.1999 16.7005 39.2905C15.6739 38.3812 15.1312 37.2372 15.0725 35.8585H17.6465C17.7199 36.6359 18.0352 37.2519 18.5925 37.7065C19.1645 38.1465 19.8685 38.3665 20.7045 38.3665C21.6579 38.3665 22.4132 38.1099 22.9705 37.5965C23.5279 37.0832 23.8065 36.3792 23.8065 35.4845C23.8065 34.5899 23.5352 33.8859 22.9925 33.3725C22.4645 32.8445 21.7092 32.5805 20.7265 32.5805C20.1839 32.5805 19.7219 32.6245 19.3405 32.7125V30.3805L22.6625 27.6745V27.1465H16.1285V24.9685Z" fill="white"/>
</svg>
