
<svg width="17" height="17" viewBox="0 0 17 17" fill="none" xmlns="http://www.w3.org/2000/svg">
<path d="M15.303 12.43L15.1534 13.7767C15.0501 14.7063 14.3062 15.4211 13.3836 15.2671C11.7261 14.9904 8.96504 14.0692 6.02004 11.1242C3.07508 8.17927 2.15351 5.41793 1.87658 3.76013C1.72242 2.83733 2.43721 2.09321 3.36708 1.98989L4.71334 1.8403C5.506 1.75223 6.27521 2.1435 6.67081 2.836L7.2244 3.80506C7.62609 4.5082 7.50752 5.39319 6.93491 5.96579C6.51031 6.39039 6.33111 7.00407 6.61323 7.53413C6.85711 7.99236 7.25758 8.59054 7.90519 9.23815C8.55281 9.88576 9.15099 10.2862 9.60921 10.5301C10.1393 10.8122 10.753 10.633 11.1775 10.2084C11.7502 9.63583 12.6351 9.51726 13.3383 9.91894L14.3073 10.4725C14.9998 10.8681 15.3911 11.6373 15.303 12.43Z" fill="#929599"/>
</svg>
