<svg width="27" height="40" viewBox="0 0 27 40" fill="none" xmlns="http://www.w3.org/2000/svg">
<path d="M13.5 1.49976C11.8583 1.49926 10.2327 1.82225 8.71587 2.45026C7.19908 3.07827 5.8209 3.99899 4.66007 5.15982C3.49924 6.32065 2.57851 7.69884 1.9505 9.21563C1.32249 10.7324 0.999508 12.3581 1 13.9998C1 20.906 13.5 38.9998 13.5 38.9998C13.5 38.9998 26 20.906 26 13.9998C26.0005 12.3581 25.6775 10.7324 25.0495 9.21563C24.4215 7.69884 23.5008 6.32065 22.3399 5.15982C21.1791 3.99899 19.8009 3.07827 18.2841 2.45026C16.7673 1.82225 15.1417 1.49926 13.5 1.49976ZM13.5 20.8748C12.1403 20.8748 10.811 20.4715 9.68046 19.7161C8.54987 18.9607 7.66868 17.8869 7.14833 16.6307C6.62798 15.3745 6.49183 13.9921 6.7571 12.6585C7.02238 11.3249 7.67716 10.0999 8.63864 9.1384C9.60013 8.17691 10.8251 7.52213 12.1588 7.25686C13.4924 6.99158 14.8747 7.12773 16.1309 7.64808C17.3872 8.16844 18.4609 9.04962 19.2164 10.1802C19.9718 11.3108 20.375 12.64 20.375 13.9998C20.3755 14.9027 20.198 15.797 19.8527 16.6313C19.5073 17.4656 19.001 18.2237 18.3625 18.8622C17.724 19.5007 16.9659 20.0071 16.1315 20.3524C15.2972 20.6978 14.403 20.8752 13.5 20.8748Z" fill="#C1D9F9"/>
<path d="M13.5 0.874756C10.0202 0.878561 6.68402 2.26259 4.22343 4.72318C1.76284 7.18377 0.378805 10.52 0.375 13.9998C0.375 21.0179 12.4712 38.6091 12.9856 39.3548C13.0431 39.438 13.1199 39.5061 13.2095 39.5531C13.2991 39.6002 13.3988 39.6247 13.5 39.6247C13.6012 39.6247 13.7009 39.6002 13.7905 39.5531C13.8801 39.5061 13.9569 39.438 14.0144 39.3548C14.5288 38.6091 26.625 21.0179 26.625 13.9998C26.6212 10.52 25.2372 7.18377 22.7766 4.72318C20.316 2.26259 16.9798 0.878561 13.5 0.874756ZM13.5 37.886C11.1575 34.3991 1.625 19.8466 1.625 13.9998C1.625 10.8503 2.87611 7.82986 5.10311 5.60286C7.3301 3.37587 10.3506 2.12476 13.5 2.12476C16.6494 2.12476 19.6699 3.37587 21.8969 5.60286C24.1239 7.82986 25.375 10.8503 25.375 13.9998C25.375 19.8454 15.8425 34.3985 13.5 37.886Z" fill="#4F89D4"/>
<path d="M13.5 6.49976C12.0166 6.49976 10.5666 6.93962 9.33323 7.76373C8.09986 8.58784 7.13856 9.75918 6.57091 11.1296C6.00325 12.5001 5.85472 14.0081 6.14411 15.4629C6.4335 16.9178 7.14781 18.2541 8.1967 19.303C9.2456 20.3519 10.582 21.0662 12.0368 21.3556C13.4917 21.645 14.9997 21.4965 16.3701 20.9288C17.7406 20.3612 18.9119 19.3999 19.736 18.1665C20.5601 16.9332 21 15.4831 21 13.9997C20.9979 12.0113 20.207 10.1049 18.8009 8.69883C17.3949 7.29277 15.4885 6.50191 13.5 6.49976ZM13.5 20.2497C12.2639 20.2497 11.0555 19.8832 10.0277 19.1964C8.99988 18.5097 8.1988 17.5336 7.72576 16.3915C7.25271 15.2495 7.12894 13.9928 7.37009 12.7804C7.61125 11.5681 8.20651 10.4544 9.08059 9.58033C9.95466 8.70626 11.0683 8.111 12.2807 7.86985C13.4931 7.62869 14.7497 7.75246 15.8918 8.22551C17.0338 8.69855 18.0099 9.49963 18.6967 10.5274C19.3834 11.5552 19.75 12.7636 19.75 13.9997C19.7482 15.6568 19.0891 17.2454 17.9174 18.4171C16.7457 19.5889 15.157 20.2479 13.5 20.2497Z" fill="#4F89D4"/>
</svg>
